<?xml version="1.0" standalone="no"?>
<!DOCTYPE svg PUBLIC "-//W3C//DTD SVG 20010904//EN"
 "http://www.w3.org/TR/2001/REC-SVG-20010904/DTD/svg10.dtd">
<svg version="1.0" xmlns="http://www.w3.org/2000/svg"
 width="800.000000pt" height="800.000000pt" viewBox="0 0 800.000000 800.000000"
 preserveAspectRatio="xMidYMid meet">
<metadata>
Created by potrace 1.11, written by Peter Selinger 2001-2013
</metadata>
<g transform="translate(0.000000,800.000000) scale(0.100000,-0.100000)"
fill="#000000" stroke="none">
<path d="M3914 7541 c-2 -2 -57 -5 -121 -7 -157 -4 -273 -15 -328 -31 -11 -3
-38 -8 -60 -9 -56 -5 -156 -24 -180 -34 -11 -4 -51 -16 -90 -25 -38 -9 -90
-23 -115 -31 -105 -32 -237 -77 -267 -90 -18 -8 -51 -21 -74 -30 -23 -8 -47
-18 -53 -22 -6 -5 -31 -14 -56 -21 -25 -7 -49 -16 -55 -21 -5 -4 -71 -38 -145
-75 -274 -139 -504 -292 -700 -465 -47 -41 -101 -88 -120 -105 -50 -43 -106
-103 -180 -191 -36 -42 -72 -84 -81 -93 -9 -9 -35 -43 -58 -76 -23 -33 -55
-78 -71 -100 -88 -117 -201 -299 -265 -424 -65 -128 -161 -352 -175 -411 -8
-31 -15 -50 -45 -125 -5 -11 -9 -22 -10 -25 0 -3 -9 -32 -19 -65 -10 -33 -19
-64 -20 -70 -1 -5 -4 -14 -7 -20 -6 -9 -33 -111 -34 -127 0 -3 -3 -10 -8 -14
-4 -4 -7 -17 -7 -29 0 -12 -3 -25 -6 -28 -4 -3 -8 -23 -10 -44 -3 -21 -6 -47
-8 -58 -8 -51 -18 -101 -23 -115 -3 -8 -7 -31 -9 -50 -2 -19 -6 -48 -8 -65 -3
-16 -8 -58 -12 -92 -4 -35 -10 -63 -13 -63 -3 0 -6 -37 -5 -82 0 -46 -2 -87
-5 -93 -8 -14 -10 -377 -2 -390 3 -5 7 -37 9 -70 2 -59 14 -152 27 -210 3 -16
8 -50 11 -75 2 -25 8 -65 14 -90 16 -69 19 -81 30 -140 6 -30 17 -71 24 -90 8
-19 31 -86 51 -149 20 -63 53 -153 72 -200 20 -47 42 -104 50 -126 21 -58 127
-279 136 -283 4 -2 7 -9 7 -16 0 -7 35 -70 78 -140 42 -70 82 -135 87 -144 29
-48 69 -108 98 -145 18 -24 41 -56 52 -71 11 -16 27 -36 35 -45 9 -9 29 -34
45 -56 26 -37 127 -147 168 -184 9 -8 17 -18 17 -22 0 -10 129 -139 138 -139
5 0 18 -10 29 -23 29 -30 131 -119 159 -137 12 -8 52 -36 89 -63 36 -26 68
-47 72 -47 3 0 22 -13 42 -29 20 -15 68 -48 106 -71 83 -51 379 -204 415 -215
14 -4 37 -16 53 -27 15 -11 27 -17 27 -14 0 3 21 -4 46 -14 25 -11 54 -20 64
-20 10 0 20 -3 22 -7 2 -5 37 -19 78 -32 41 -13 84 -27 95 -31 11 -5 36 -14
55 -21 19 -8 38 -13 42 -11 4 1 27 -4 50 -12 24 -8 61 -17 83 -22 22 -4 47 -9
55 -11 8 -2 24 -6 35 -8 11 -2 31 -6 45 -9 28 -7 125 -25 155 -31 11 -2 52 -6
90 -9 39 -4 90 -9 115 -12 130 -14 552 -20 615 -8 17 3 53 6 80 8 80 5 166 16
215 27 25 6 59 12 75 14 17 1 41 5 55 8 189 44 330 80 352 88 15 6 28 10 30 9
2 -1 48 15 103 35 55 20 105 38 110 39 6 2 24 8 40 16 17 7 48 20 69 29 75 31
410 202 428 218 10 9 18 13 18 9 0 -4 24 10 53 31 28 21 63 44 77 51 14 7 53
33 85 57 33 24 89 65 125 92 63 46 79 59 164 137 21 19 46 38 57 41 10 3 21
15 24 25 3 10 14 21 23 25 9 3 33 24 52 46 19 23 72 80 116 128 45 47 100 109
123 136 22 28 50 60 61 72 11 12 20 25 20 28 0 4 46 69 78 110 12 16 166 265
198 320 47 83 154 313 201 435 40 102 55 149 108 320 17 56 33 117 39 150 2
14 10 48 16 75 6 28 13 59 15 70 2 11 6 34 9 50 12 60 19 101 22 125 3 25 14
113 20 160 14 107 17 176 16 395 -1 137 -4 263 -8 280 -4 16 -8 48 -10 70 -5
88 -15 152 -44 297 -17 84 -33 155 -35 159 -3 4 -7 22 -10 42 -3 19 -21 81
-41 138 -19 57 -37 115 -40 129 -3 13 -11 38 -19 55 -8 16 -23 57 -34 90 -11
33 -34 92 -52 130 -17 39 -30 70 -28 70 2 0 -4 11 -14 25 -9 13 -17 32 -17 42
0 9 -6 23 -13 30 -7 7 -25 38 -40 68 -14 30 -37 71 -49 91 -13 20 -36 58 -53
85 -70 116 -207 319 -262 389 -5 6 -19 24 -31 40 -50 66 -93 113 -244 263
-153 153 -237 232 -246 232 -4 0 -31 22 -102 84 -8 7 -53 38 -100 69 -47 31
-98 68 -113 82 -15 14 -33 25 -38 25 -6 0 -29 13 -52 28 -64 44 -138 86 -177
102 -19 7 -42 19 -50 26 -16 14 -201 97 -255 116 -16 5 -37 12 -45 15 -8 3
-19 7 -25 9 -5 2 -59 20 -120 39 -60 20 -126 40 -145 44 -19 5 -68 19 -108 31
-40 12 -85 23 -100 26 -54 8 -87 14 -112 20 -14 3 -36 7 -50 10 -43 8 -64 13
-102 23 -20 5 -39 7 -42 4 -2 -3 -28 0 -58 6 -72 15 -128 20 -293 26 -77 4
-162 7 -188 8 -27 1 -51 0 -53 -2z m203 -36 c156 -5 238 -12 323 -28 19 -4 51
-9 70 -11 38 -6 98 -17 206 -40 39 -9 87 -18 108 -21 20 -4 52 -13 71 -21 19
-8 46 -14 59 -14 14 0 35 -4 48 -9 13 -5 55 -19 93 -31 39 -12 113 -38 165
-57 52 -20 100 -36 105 -37 6 -1 36 -13 65 -28 30 -14 103 -49 163 -78 59 -28
144 -73 188 -101 44 -27 84 -49 88 -49 4 0 18 -12 32 -26 13 -14 40 -34 59
-44 83 -43 273 -195 435 -348 39 -37 84 -78 100 -93 17 -14 44 -42 60 -63 17
-21 43 -52 59 -69 49 -55 142 -171 162 -202 10 -16 44 -64 75 -105 31 -41 62
-86 69 -100 7 -14 16 -27 19 -30 3 -3 15 -23 25 -45 11 -22 28 -49 37 -60 9
-11 45 -74 79 -140 34 -66 65 -124 69 -130 3 -5 6 -12 6 -15 1 -3 9 -22 18
-44 9 -21 17 -40 17 -41 0 -2 16 -38 35 -79 19 -42 35 -81 35 -88 0 -6 11 -34
25 -63 13 -28 26 -63 29 -76 3 -13 12 -43 21 -67 8 -24 17 -51 19 -60 1 -9 9
-30 15 -47 7 -16 14 -37 16 -45 2 -8 11 -46 20 -85 9 -38 17 -79 19 -90 6 -43
19 -101 24 -110 4 -5 7 -26 8 -45 1 -19 3 -35 4 -35 2 0 4 -20 6 -45 1 -25 8
-74 14 -110 28 -157 28 -619 0 -780 -11 -59 -14 -83 -24 -175 -1 -16 -5 -37
-9 -45 -3 -8 -8 -33 -11 -55 -2 -22 -7 -51 -11 -65 -3 -14 -10 -52 -16 -85 -6
-32 -14 -64 -18 -70 -5 -5 -7 -19 -5 -30 1 -10 -1 -24 -5 -30 -5 -5 -16 -39
-25 -74 -9 -35 -23 -77 -30 -95 -8 -17 -22 -55 -31 -83 -9 -29 -21 -55 -26
-58 -5 -4 -9 -14 -9 -24 0 -11 -14 -50 -32 -87 -18 -38 -34 -77 -35 -88 -2
-10 -12 -31 -23 -46 -11 -16 -20 -31 -20 -34 0 -28 -141 -281 -237 -426 -131
-197 -383 -500 -415 -500 -5 0 -8 -7 -8 -15 0 -8 -4 -15 -9 -15 -5 0 -46 -38
-92 -85 -46 -47 -89 -85 -96 -85 -7 0 -16 -7 -21 -15 -4 -9 -30 -34 -58 -55
-27 -22 -55 -45 -63 -51 -41 -35 -117 -90 -201 -145 -52 -35 -106 -71 -120
-81 -14 -10 -27 -18 -30 -18 -3 0 -35 -17 -72 -38 -36 -20 -73 -37 -82 -37 -8
0 -19 -6 -23 -13 -8 -12 -24 -21 -148 -77 -75 -35 -102 -47 -180 -80 -27 -12
-59 -26 -70 -31 -29 -13 -295 -98 -330 -105 -5 -1 -39 -10 -75 -19 -36 -9 -81
-18 -100 -21 -29 -4 -50 -8 -90 -19 -19 -5 -110 -18 -135 -20 -16 -1 -41 -5
-55 -10 -14 -4 -56 -10 -95 -13 -93 -7 -646 -5 -710 2 -27 3 -70 8 -95 10 -92
9 -154 17 -162 22 -4 3 -20 7 -35 9 -16 2 -56 10 -90 18 -34 8 -64 13 -67 10
-2 -2 -14 0 -25 7 -12 6 -34 13 -49 15 -34 5 -172 46 -282 84 -77 27 -102 36
-195 76 -16 7 -50 21 -75 31 -25 10 -79 36 -120 57 -41 22 -117 62 -168 88
-50 27 -135 78 -188 114 -53 36 -98 65 -100 65 -5 0 -127 90 -134 99 -3 3 -33
27 -67 54 -175 134 -382 352 -554 582 -84 112 -169 240 -169 253 0 5 -7 15
-15 22 -16 13 -71 111 -159 285 -81 158 -181 399 -221 535 -1 3 -4 12 -8 20
-28 72 -93 335 -101 410 -2 19 -9 58 -16 85 -12 50 -17 92 -24 212 -3 34 -7
67 -11 72 -7 12 -7 357 1 416 2 22 6 63 8 90 4 57 12 113 27 200 6 33 12 76
14 95 1 19 3 36 4 38 1 1 1 3 2 5 2 5 30 153 35 187 3 19 12 60 21 90 9 30 17
62 18 70 1 8 7 27 13 43 7 15 14 38 16 50 2 12 25 83 51 157 26 74 50 149 55
165 4 17 15 44 24 60 9 17 16 36 16 43 0 7 10 32 23 55 13 23 31 65 41 92 11
28 24 56 30 64 6 8 25 40 41 71 54 103 137 240 146 240 5 0 9 5 9 11 0 12 61
102 73 107 4 2 7 8 7 13 0 9 55 86 71 99 3 3 17 21 30 41 76 115 346 391 499
510 30 24 60 48 66 54 14 13 233 163 277 189 86 51 145 82 292 154 193 96 235
115 255 119 9 1 43 14 75 29 57 25 217 81 257 90 31 7 51 13 101 28 26 8 48
15 50 15 1 0 9 2 17 5 22 7 94 20 102 18 4 -1 20 3 35 9 28 11 75 20 103 21 8
0 33 4 54 10 22 5 67 12 100 15 34 2 79 6 101 9 22 2 96 7 165 10 69 3 127 8
129 10 2 2 8 1 12 -2 5 -3 71 -7 146 -9z"/>
<path d="M3938 7454 c-3 -2 -63 -6 -134 -8 -71 -3 -151 -8 -179 -12 -27 -3
-63 -7 -80 -8 -16 -1 -37 -5 -45 -8 -8 -3 -60 -13 -115 -23 -129 -21 -160 -28
-275 -60 -52 -14 -105 -28 -116 -30 -12 -1 -30 -7 -40 -13 -11 -5 -55 -22 -99
-37 -44 -14 -90 -33 -102 -41 -12 -8 -29 -14 -36 -14 -29 0 -360 -157 -452
-215 -27 -17 -81 -49 -119 -70 -74 -43 -80 -47 -177 -114 -56 -39 -155 -115
-169 -131 -3 -3 -32 -27 -65 -54 -77 -62 -180 -161 -258 -249 -34 -39 -73 -82
-86 -96 -46 -51 -190 -248 -278 -381 -71 -108 -217 -377 -218 -400 0 -3 -14
-39 -32 -80 -27 -65 -41 -100 -48 -120 -1 -3 -4 -12 -8 -20 -17 -43 -79 -228
-84 -250 -2 -14 -7 -32 -10 -40 -4 -8 -7 -18 -8 -22 -2 -5 -4 -10 -5 -13 -1
-3 -3 -13 -4 -22 -1 -10 -4 -22 -8 -28 -3 -5 -9 -31 -13 -58 -4 -26 -11 -49
-15 -52 -7 -4 -14 -33 -25 -100 -1 -5 -3 -12 -4 -15 -2 -3 -4 -16 -6 -30 -2
-14 -6 -41 -9 -60 -3 -19 -8 -55 -12 -80 -3 -25 -8 -52 -11 -60 -4 -8 -8 -33
-9 -55 -2 -22 -8 -80 -14 -130 -15 -135 -20 -210 -19 -320 0 -136 6 -277 13
-295 2 -8 7 -44 11 -80 8 -97 11 -113 23 -142 6 -14 14 -50 17 -80 10 -91 12
-102 20 -133 4 -16 16 -54 26 -83 10 -29 19 -64 19 -78 0 -14 6 -38 14 -52 8
-15 26 -65 41 -112 14 -47 29 -92 32 -100 4 -8 7 -17 8 -20 14 -39 62 -152
113 -260 19 -41 35 -82 35 -90 0 -8 6 -19 13 -25 7 -5 34 -50 60 -100 26 -49
67 -120 90 -157 24 -37 44 -69 44 -73 0 -3 29 -46 65 -95 36 -49 65 -94 65
-100 0 -5 3 -10 8 -10 4 0 41 -44 82 -97 84 -108 394 -421 455 -460 22 -15 42
-29 45 -33 3 -3 31 -26 62 -49 32 -24 58 -47 58 -52 0 -5 5 -9 12 -9 6 0 48
-24 92 -53 122 -81 240 -149 348 -200 131 -62 354 -157 370 -157 7 0 33 -10
58 -21 41 -19 217 -72 280 -85 14 -2 54 -12 89 -20 117 -29 173 -38 341 -60
105 -13 234 -19 410 -19 190 0 445 11 459 19 3 2 26 7 51 10 42 6 138 21 187
30 11 2 46 11 77 20 30 9 73 18 94 20 22 2 49 9 60 15 12 6 34 13 49 15 37 5
130 34 170 52 17 8 33 14 36 14 3 0 18 5 34 12 15 7 33 13 38 13 6 1 23 7 38
13 16 7 32 12 36 12 5 0 14 7 21 15 7 8 20 15 29 15 10 0 41 11 69 25 29 14
56 25 62 25 5 0 10 5 10 10 0 6 11 10 25 10 14 0 25 4 25 9 0 5 29 23 64 39
35 16 89 46 120 66 31 20 59 36 62 36 11 0 328 217 374 257 14 12 59 49 100
83 79 65 321 306 355 353 11 16 35 45 53 65 18 20 47 57 65 82 33 48 34 49 71
95 37 47 116 172 116 184 0 6 4 11 8 11 4 0 18 19 30 42 13 24 45 84 73 133
27 50 56 106 64 125 9 19 24 53 34 75 42 90 113 264 116 285 2 15 29 87 35 95
5 6 11 28 15 50 4 22 14 52 22 67 7 15 13 30 12 33 -1 9 13 70 20 80 3 6 7 19
8 30 1 11 7 43 13 70 6 28 13 66 16 85 8 68 22 138 30 160 4 8 8 40 10 70 2
30 7 89 10 130 11 139 15 472 6 483 -4 7 -8 48 -7 92 1 44 -2 85 -6 90 -5 6
-7 24 -6 40 2 17 -1 50 -6 75 -5 25 -9 56 -8 69 0 12 -2 28 -7 35 -4 6 -8 22
-8 36 -1 14 -4 32 -7 40 -4 13 -17 69 -30 140 -2 8 -6 22 -9 30 -10 24 -30
103 -31 123 -1 9 -4 17 -8 17 -6 0 -23 58 -21 72 1 4 -10 32 -23 62 -14 31
-25 59 -26 64 -9 48 -91 246 -159 382 -117 236 -237 430 -360 581 -25 30 -56
70 -70 89 -70 94 -205 237 -336 355 -43 39 -91 82 -106 98 -16 15 -31 27 -33
27 -2 0 -60 43 -129 95 -70 52 -142 102 -161 111 -19 9 -39 22 -46 30 -6 8
-15 14 -19 14 -4 0 -45 23 -91 51 -46 28 -113 64 -149 81 -36 16 -71 35 -79
41 -7 6 -19 12 -26 13 -8 1 -33 11 -57 22 -91 43 -138 62 -151 62 -7 0 -17 4
-22 9 -13 11 -289 98 -340 106 -22 4 -44 10 -50 13 -5 3 -16 7 -25 8 -8 1 -26
4 -40 7 -98 23 -213 46 -255 51 -27 3 -60 7 -71 10 -85 18 -168 25 -364 32
-74 2 -140 6 -147 9 -6 2 -13 2 -15 -1z m297 -48 c50 -3 113 -10 140 -16 28
-6 76 -12 107 -15 61 -5 86 -9 133 -22 17 -5 37 -9 45 -8 8 1 22 -2 31 -7 9
-4 34 -10 55 -13 22 -3 57 -10 79 -16 22 -5 51 -12 64 -14 14 -2 34 -8 45 -14
12 -5 55 -19 96 -31 123 -35 143 -41 196 -66 28 -13 56 -24 62 -24 6 0 29 -9
50 -20 22 -11 50 -23 62 -25 13 -3 26 -9 29 -13 3 -5 17 -13 31 -17 14 -4 62
-27 106 -50 45 -24 85 -41 88 -38 3 4 6 1 6 -5 0 -7 15 -19 33 -27 44 -20 104
-55 152 -88 22 -15 43 -27 47 -27 8 0 38 -23 70 -52 10 -10 25 -18 33 -18 7 0
18 -6 22 -12 4 -7 28 -29 53 -48 25 -19 47 -38 48 -42 2 -4 9 -8 15 -8 6 0 25
-14 41 -30 17 -17 92 -90 168 -163 155 -151 236 -239 316 -347 31 -41 59 -77
62 -80 3 -3 32 -45 65 -95 33 -49 73 -107 88 -127 16 -21 25 -38 21 -38 -4 0
0 -8 9 -18 39 -43 214 -395 252 -507 18 -52 28 -80 45 -117 15 -35 33 -82 35
-93 12 -49 28 -106 39 -135 16 -42 38 -125 42 -160 1 -14 9 -43 16 -65 8 -22
13 -51 12 -65 -1 -14 1 -29 5 -35 3 -5 7 -21 7 -35 1 -14 4 -32 7 -40 10 -28
18 -85 20 -145 1 -33 5 -64 8 -70 6 -9 12 -175 12 -350 0 -140 -25 -467 -40
-505 -6 -15 -10 -39 -16 -95 -2 -16 -7 -37 -10 -45 -3 -8 -8 -30 -11 -48 -6
-36 -13 -67 -17 -67 -1 0 -3 -13 -5 -30 -4 -43 -14 -87 -24 -110 -8 -18 -43
-132 -45 -145 0 -4 -12 -37 -35 -95 -4 -11 -16 -40 -26 -65 -11 -24 -19 -49
-20 -55 -1 -17 -102 -227 -194 -401 -40 -77 -139 -227 -152 -232 -4 -2 -8 -10
-8 -17 0 -12 -62 -100 -119 -171 -15 -17 -37 -46 -51 -64 -53 -69 -247 -270
-372 -386 -54 -50 -230 -189 -265 -209 -18 -11 -33 -22 -33 -26 0 -7 -224
-149 -235 -149 -2 0 -23 -13 -47 -29 -37 -25 -110 -61 -283 -141 -22 -10 -67
-31 -100 -46 -33 -15 -64 -29 -70 -30 -5 -1 -23 -8 -40 -14 -16 -7 -37 -14
-45 -16 -8 -1 -53 -16 -100 -33 -46 -17 -93 -31 -105 -31 -12 0 -25 -4 -30 -9
-8 -7 -64 -21 -220 -57 -5 -1 -23 -4 -40 -7 -16 -3 -50 -9 -75 -13 -25 -4 -52
-8 -60 -9 -8 -1 -28 -4 -45 -8 -148 -33 -640 -39 -875 -11 -81 10 -92 11 -130
19 -19 3 -44 7 -55 9 -11 2 -35 6 -54 11 -18 4 -45 8 -60 10 -14 2 -62 13
-106 25 -44 11 -106 27 -137 34 -32 8 -65 19 -73 26 -8 7 -21 10 -30 7 -8 -4
-17 -2 -20 3 -4 6 -14 10 -24 10 -10 0 -31 6 -47 14 -39 20 -87 40 -99 41 -5
1 -23 7 -40 14 -16 7 -59 23 -94 37 -96 38 -334 163 -441 232 -141 90 -301
207 -357 261 -17 17 -35 31 -38 31 -13 0 -171 154 -275 267 -125 136 -210 245
-311 399 -97 146 -161 255 -225 384 -46 92 -107 222 -108 230 -1 3 -4 10 -8
15 -16 25 -138 367 -143 400 -1 11 -3 20 -5 20 -1 0 -3 11 -5 25 -2 14 -11 54
-20 90 -8 36 -17 76 -19 90 -3 14 -10 50 -16 80 -15 71 -20 105 -24 160 -2 25
-7 52 -10 60 -15 38 -24 452 -12 590 9 108 18 174 24 185 4 5 7 28 9 50 2 56
14 128 23 140 4 6 6 19 4 30 -2 11 2 43 10 70 7 28 19 77 25 110 7 33 14 67
16 75 14 60 19 76 27 86 5 7 8 16 7 20 -5 19 72 255 116 359 7 17 25 61 40 99
15 38 31 77 35 85 5 9 21 43 36 76 80 174 290 496 427 654 23 27 60 70 82 96
71 86 262 266 365 345 18 14 47 37 64 51 17 15 60 45 96 68 35 23 67 47 71 53
4 6 14 13 23 14 8 1 30 14 49 28 19 14 39 26 45 26 7 0 12 5 12 12 0 6 3 8 6
5 4 -4 23 6 43 22 20 16 45 31 57 35 11 3 63 29 115 56 52 28 101 53 109 56 8
3 33 13 55 23 126 58 158 71 235 96 47 15 92 30 100 33 8 3 19 4 24 3 5 -1 12
2 15 8 4 5 19 12 34 15 14 2 31 7 37 11 5 3 18 8 27 10 10 2 52 13 93 25 73
21 124 31 165 34 11 1 25 4 31 8 11 7 39 13 119 24 17 2 41 6 55 8 76 12 134
18 209 22 46 2 86 5 87 7 4 4 313 -1 409 -7z"/>
<path d="M3590 7325 c-58 -22 -83 -56 -69 -92 10 -27 35 -30 60 -7 17 15 18
14 23 -18 8 -53 16 -111 19 -143 1 -16 5 -34 9 -40 3 -5 9 -40 13 -77 6 -64 5
-69 -20 -92 -25 -24 -26 -25 -7 -35 11 -6 22 -8 24 -6 3 3 35 7 71 8 37 2 70
7 74 11 9 8 -24 36 -42 36 -17 0 -33 53 -23 79 12 35 24 30 208 -79 52 -31
101 -45 156 -45 51 0 68 5 102 29 24 16 42 37 42 47 0 26 -25 24 -50 -3 -53
-57 -129 -53 -188 9 -20 22 -56 50 -79 63 -24 13 -43 27 -43 31 0 3 16 19 36
34 36 28 67 83 67 120 0 55 -51 155 -78 155 -7 0 -18 6 -25 14 -6 8 -18 12
-26 9 -8 -3 -22 -1 -31 3 -36 16 -168 10 -223 -11z m185 -25 c4 -6 10 -8 15
-5 5 3 29 -14 53 -37 42 -41 43 -45 41 -98 -3 -75 -10 -92 -47 -117 -37 -26
-112 -39 -123 -21 -4 6 -8 30 -9 52 0 23 -5 48 -10 55 -4 8 -10 26 -11 40 -10
95 -10 117 -2 129 12 14 84 16 93 2z"/>
<path d="M4012 7340 c-17 -7 -22 -16 -20 -32 2 -13 8 -22 13 -21 6 1 17 3 25
5 17 3 22 -27 23 -137 0 -91 -5 -118 -32 -146 -31 -33 -13 -42 55 -29 67 13
263 1 378 -24 55 -11 72 -12 82 -2 21 22 0 40 -39 33 -19 -3 -39 -1 -44 4 -11
11 -58 19 -148 26 -33 2 -67 7 -75 10 -8 3 -35 6 -60 7 -45 1 -45 1 -47 38 -2
44 21 63 59 50 13 -4 41 -5 63 -2 31 4 40 9 40 24 0 18 -8 20 -69 23 -39 1
-76 5 -82 7 -9 3 -12 24 -11 63 2 52 4 58 22 56 62 -8 155 -9 173 -2 24 9 29
34 9 42 -8 3 -20 1 -28 -4 -12 -8 -54 -5 -114 8 -46 10 -152 12 -173 3z"/>
<path d="M4452 7300 c-27 -12 -46 -29 -54 -47 -28 -70 -8 -100 102 -150 78
-36 92 -46 124 -94 48 -72 46 -117 -9 -176 -20 -23 -33 -27 -72 -26 -65 1 -79
5 -120 37 -21 17 -32 34 -29 42 10 27 -24 27 -58 0 -19 -14 -39 -26 -44 -26
-11 0 -23 -26 -15 -33 2 -3 20 -3 38 0 25 4 45 -1 71 -16 100 -59 220 -61 288
-4 89 74 78 204 -24 257 -193 102 -181 94 -186 133 -5 47 46 84 104 76 35 -6
109 -68 131 -111 10 -19 15 -21 27 -11 8 6 12 14 10 17 -3 2 1 14 9 26 22 30
20 59 -4 51 -12 -3 -38 5 -68 23 -90 54 -153 63 -221 32z"/>
<path d="M3195 7267 c-8 -4 -19 -6 -24 -2 -5 3 -12 1 -16 -4 -3 -6 -26 -20
-51 -33 -47 -23 -128 -104 -139 -138 -3 -11 -10 -20 -14 -20 -9 0 -9 -1 -16
-90 -6 -75 23 -165 56 -175 10 -4 19 -10 19 -15 0 -12 52 -19 77 -9 44 17 37
98 -8 86 -22 -6 -51 14 -57 39 -10 45 -13 106 -6 122 4 9 6 23 5 29 -3 21 25
66 66 105 128 124 318 93 351 -57 13 -57 6 -121 -15 -151 -23 -32 -94 -60
-138 -55 -27 4 -28 5 -32 54 -7 72 -9 83 -18 98 -5 7 -8 24 -7 36 4 27 -14 63
-31 63 -14 0 -47 -70 -47 -101 0 -11 4 -28 10 -38 9 -18 18 -53 27 -106 2 -16
7 -37 11 -45 7 -18 10 -34 18 -83 5 -30 2 -45 -15 -68 -38 -51 -20 -65 41 -30
18 11 57 22 86 26 51 7 88 28 77 45 -3 4 -14 6 -25 3 -37 -10 -67 5 -81 39
-26 68 -23 75 32 82 60 8 94 23 133 56 27 24 51 66 47 84 -1 4 2 13 7 20 13
16 6 71 -16 126 -15 38 -47 70 -97 96 -37 20 -57 24 -120 22 -41 -1 -81 -6
-90 -11z"/>
<path d="M4858 7204 c-27 -8 -48 -18 -49 -22 0 -4 -2 -15 -4 -24 -2 -9 5 -24
15 -33 16 -15 19 -15 34 0 9 9 16 21 16 26 0 5 4 9 9 9 6 0 8 -17 6 -37 -1
-21 -4 -38 -5 -38 -2 0 -5 -12 -24 -90 -22 -93 -36 -134 -47 -140 -5 -4 -7 -9
-5 -13 2 -4 -3 -23 -13 -42 -13 -28 -22 -35 -45 -35 -28 -1 -60 -30 -50 -46 2
-5 15 -4 28 1 13 5 27 6 30 2 4 -3 14 -7 23 -8 39 -6 72 -17 129 -44 111 -52
220 -72 231 -43 8 21 -7 31 -52 36 -53 6 -209 86 -213 110 -10 49 21 86 56 68
38 -20 130 -60 143 -61 30 -5 49 1 48 13 0 12 -144 87 -168 87 -7 0 -21 4 -31
10 -16 8 -17 15 -9 42 6 18 12 40 14 48 2 8 11 35 20 60 9 25 17 50 19 55 11
38 19 45 45 39 14 -4 35 -12 46 -18 11 -5 22 -11 25 -11 29 -7 67 -19 75 -23
12 -8 43 -13 75 -12 29 0 50 17 29 23 -55 15 -220 87 -230 100 -3 5 -9 8 -13
7 -6 -2 -64 7 -96 15 -8 2 -36 -3 -62 -11z"/>
<path d="M5355 7027 c-27 -5 -63 -14 -78 -19 -30 -12 -107 -93 -107 -113 0
-19 27 -26 40 -10 6 7 27 16 48 20 42 8 72 30 72 54 0 21 31 40 61 37 64 -7
159 -55 159 -81 0 -7 7 -15 15 -19 33 -12 54 -118 32 -161 -18 -36 -85 -95
-109 -96 -43 -2 -73 3 -100 17 -32 17 -30 28 19 95 18 26 33 50 33 54 0 4 14
27 30 52 29 43 30 46 13 59 -24 18 -31 17 -45 -5 -6 -10 -18 -17 -25 -14 -22
9 -63 -25 -63 -52 0 -24 -90 -219 -111 -240 -5 -5 -25 -10 -44 -11 -44 -1 -47
-4 -39 -42 6 -30 9 -32 48 -32 23 0 52 -7 64 -16 12 -8 22 -12 22 -8 0 5 5 3
12 -4 17 -17 58 -15 58 2 0 8 -13 24 -29 36 -32 22 -34 51 -7 78 11 11 17 12
35 0 11 -7 21 -18 21 -25 0 -7 5 -13 10 -13 6 0 10 -6 10 -13 0 -8 9 -24 20
-37 19 -22 24 -35 21 -52 0 -5 3 -8 8 -8 5 0 19 -16 31 -36 12 -19 48 -54 79
-77 31 -23 58 -45 61 -48 3 -3 27 -9 54 -13 64 -10 59 10 -11 44 -73 36 -108
70 -145 140 -18 34 -39 73 -46 86 -17 32 -8 44 32 44 160 0 238 212 122 332
-36 37 -107 75 -159 85 -18 3 -39 9 -47 12 -8 4 -37 3 -65 -2z"/>
<path d="M2217 6816 c-25 -26 -78 -56 -101 -56 -27 0 -144 -67 -180 -104 -33
-32 -36 -40 -34 -83 3 -41 6 -48 26 -51 16 -3 22 2 22 17 0 11 5 23 10 26 6 4
8 10 5 15 -3 4 1 13 9 19 10 9 17 6 29 -11 8 -13 28 -37 43 -55 16 -18 38 -44
49 -58 11 -14 27 -33 35 -42 8 -9 29 -39 46 -67 29 -46 32 -56 28 -112 -3 -34
-1 -65 4 -68 5 -3 30 15 56 39 49 49 155 120 221 149 49 23 95 73 91 101 -5
31 -39 30 -58 -2 -12 -20 -39 -37 -90 -57 -40 -16 -88 -39 -107 -52 l-34 -23
-28 42 c-27 39 -27 43 -11 55 9 7 25 19 35 27 9 8 21 15 27 15 13 0 60 45 60
58 0 23 -19 20 -60 -9 -23 -17 -44 -28 -47 -25 -3 3 -18 -3 -34 -14 l-27 -20
-24 31 c-13 17 -47 57 -77 90 l-54 59 29 25 c16 14 36 25 44 25 8 0 26 9 40
20 14 11 30 20 35 20 6 0 29 18 50 40 33 34 37 42 25 50 -22 14 -29 12 -53
-14z"/>
<path d="M5757 6833 c-3 -4 3 -23 12 -41 16 -30 16 -40 4 -95 -8 -34 -16 -71
-19 -82 -3 -11 -8 -31 -10 -45 -2 -14 -8 -45 -14 -70 -16 -65 -19 -123 -8
-137 7 -9 19 -6 48 12 21 13 73 38 116 55 44 17 92 38 107 46 16 8 35 14 43
14 8 0 17 7 20 15 4 8 17 15 30 15 18 0 26 8 35 40 23 76 -28 88 -71 17 -11
-18 -22 -30 -24 -27 -2 3 -16 -6 -30 -19 -14 -14 -26 -21 -26 -16 0 4 -9 0
-19 -9 -10 -10 -36 -19 -56 -21 -21 -2 -41 -7 -44 -12 -6 -8 -47 -33 -55 -33
-9 0 0 76 12 97 7 12 12 34 12 50 0 48 19 99 47 128 27 26 27 27 8 41 -35 25
-53 42 -61 57 -11 17 -50 31 -57 20z"/>
<path d="M3796 6753 c-4 -4 -64 -13 -122 -18 -32 -3 -81 -10 -109 -15 -27 -5
-66 -11 -85 -14 -38 -4 -156 -33 -180 -44 -8 -3 -19 -7 -25 -7 -5 -1 -17 -5
-25 -8 -8 -3 -67 -22 -130 -42 -121 -39 -140 -49 -140 -71 0 -20 57 -18 88 4
26 18 55 32 77 37 6 2 37 12 70 23 76 25 132 41 168 47 53 10 82 16 116 25 19
5 38 7 43 4 4 -3 8 -1 8 3 0 5 8 9 18 9 9 0 44 4 77 8 121 16 244 22 400 20
146 -2 191 -6 280 -20 17 -3 48 -7 70 -9 43 -4 75 -11 105 -20 10 -3 34 -8 52
-10 18 -2 67 -14 108 -26 41 -12 84 -23 96 -24 12 -2 35 -10 52 -19 18 -9 32
-14 32 -11 0 3 19 -5 43 -17 46 -24 52 -26 99 -35 18 -3 38 -9 43 -13 6 -4 63
-31 128 -60 64 -29 117 -56 117 -60 0 -4 10 -10 23 -14 26 -6 135 -70 230
-135 38 -25 75 -50 84 -56 9 -5 25 -19 37 -30 12 -11 36 -31 55 -45 18 -14 48
-37 66 -52 18 -16 38 -28 44 -28 6 0 11 -5 11 -11 0 -15 52 -69 66 -69 7 0 18
-10 26 -22 9 -13 46 -54 83 -93 37 -38 86 -95 108 -125 23 -30 53 -67 67 -83
14 -16 34 -43 45 -61 11 -18 41 -63 66 -102 59 -87 204 -354 193 -354 -2 0 6
-19 18 -42 12 -24 22 -45 23 -48 0 -3 10 -26 22 -51 11 -26 33 -89 48 -140 14
-52 29 -101 33 -109 3 -8 7 -19 7 -25 1 -5 4 -17 8 -25 9 -24 28 -123 29 -152
1 -16 5 -28 10 -28 5 0 8 -15 8 -32 -1 -41 9 -128 18 -148 19 -48 19 -548 -1
-600 -3 -8 -8 -57 -11 -108 -3 -52 -9 -99 -13 -105 -4 -7 -8 -19 -9 -27 0 -8
-3 -22 -6 -30 -4 -8 -11 -40 -17 -70 -18 -88 -21 -101 -42 -162 -11 -33 -17
-63 -14 -69 4 -5 1 -9 -4 -9 -6 0 -11 -8 -11 -18 0 -10 -6 -26 -14 -37 -7 -11
-17 -36 -21 -55 -4 -19 -11 -39 -15 -45 -5 -5 -9 -14 -10 -20 -1 -5 -17 -44
-36 -85 -19 -41 -34 -75 -33 -75 1 0 -13 -24 -30 -53 -17 -29 -31 -56 -31 -61
0 -4 -9 -16 -20 -26 -11 -10 -20 -24 -20 -30 0 -7 -15 -35 -32 -62 -18 -27
-37 -56 -43 -65 -33 -54 -95 -141 -127 -179 -137 -163 -172 -202 -243 -270
-44 -42 -96 -90 -115 -105 -19 -16 -44 -37 -55 -47 -45 -41 -242 -186 -265
-195 -8 -3 -31 -17 -50 -31 -19 -15 -78 -48 -130 -75 -52 -26 -102 -52 -110
-56 -79 -45 -388 -160 -466 -174 -13 -3 -28 -7 -34 -11 -10 -6 -132 -30 -226
-45 -29 -4 -60 -11 -70 -14 -86 -26 -606 -27 -754 -1 -19 3 -51 8 -70 10 -69
9 -235 47 -247 57 -7 5 -16 7 -20 5 -5 -3 -40 6 -78 19 -39 14 -90 31 -115 38
-156 46 -467 199 -602 297 -37 27 -70 49 -73 49 -5 0 -37 24 -144 108 -183
145 -373 355 -514 567 -25 39 -55 82 -67 97 -11 14 -20 30 -20 35 0 5 -13 30
-30 56 -16 26 -26 47 -22 47 4 0 2 4 -3 8 -11 7 -66 118 -107 210 -11 26 -25
58 -31 72 -6 14 -11 30 -12 35 -1 6 -11 29 -23 52 -12 24 -21 46 -20 50 0 5
-2 16 -5 26 -24 62 -23 60 -38 117 -6 25 -14 52 -17 60 -8 24 -10 32 -22 95
-7 33 -15 65 -18 70 -4 6 -7 21 -8 35 0 14 -6 61 -13 105 -6 44 -14 116 -17
160 -2 44 -6 89 -8 100 -1 11 2 25 7 32 5 7 4 19 -1 30 -5 10 -7 27 -5 38 2
11 6 74 8 140 1 66 8 149 15 185 7 36 14 81 15 100 2 19 10 67 20 105 9 39 17
77 17 85 0 21 28 133 36 145 4 5 7 17 7 25 0 8 3 20 6 25 4 6 17 44 29 85 12
41 25 79 28 85 3 5 7 16 8 25 2 21 115 263 158 339 20 34 36 65 36 67 0 10
172 262 200 294 17 19 43 51 58 70 32 42 219 229 288 287 116 98 145 120 259
196 125 83 302 188 321 191 7 1 18 7 25 13 25 19 121 59 152 62 4 1 7 10 7 21
0 27 -25 26 -88 -5 -29 -14 -58 -25 -65 -25 -7 0 -17 -4 -22 -9 -10 -9 -81
-50 -150 -86 -22 -12 -51 -28 -65 -37 -92 -57 -156 -98 -165 -106 -6 -5 -33
-24 -60 -43 -74 -51 -185 -140 -185 -148 0 -4 -12 -14 -28 -23 -77 -47 -288
-280 -404 -448 -83 -120 -289 -500 -271 -500 3 0 0 -7 -7 -15 -7 -8 -10 -15
-6 -15 4 0 -1 -15 -11 -32 -9 -18 -18 -41 -20 -51 -2 -10 -11 -32 -20 -50 -10
-18 -18 -41 -18 -52 -1 -11 -4 -27 -7 -35 -31 -78 -69 -226 -60 -234 3 -3 -1
-12 -7 -20 -7 -8 -17 -41 -22 -73 -5 -32 -11 -71 -14 -88 -3 -16 -7 -45 -8
-62 -2 -18 -6 -36 -10 -39 -4 -4 -7 -47 -7 -95 0 -48 -3 -90 -8 -92 -15 -10
-2 -513 15 -557 3 -8 7 -28 9 -45 8 -67 13 -92 29 -139 18 -51 22 -70 32 -126
3 -19 11 -46 18 -60 7 -14 16 -40 20 -59 4 -18 17 -54 28 -80 12 -25 20 -50
19 -55 -2 -4 1 -13 6 -20 5 -6 19 -37 31 -70 27 -73 132 -281 183 -362 21 -34
38 -64 38 -68 0 -3 28 -46 63 -94 34 -48 70 -98 79 -112 9 -14 29 -39 45 -56
15 -17 48 -55 73 -84 96 -112 316 -320 338 -320 5 0 12 -4 14 -8 2 -5 30 -28
63 -53 33 -24 62 -46 65 -49 3 -4 22 -14 43 -24 21 -10 41 -24 44 -32 3 -8 13
-14 23 -14 10 0 23 -6 29 -14 23 -27 433 -225 501 -241 8 -2 51 -15 94 -29 43
-14 82 -26 87 -26 4 0 20 -5 36 -12 15 -6 37 -13 48 -14 47 -7 91 -16 105 -21
8 -3 26 -7 40 -9 14 -1 68 -10 120 -19 102 -17 308 -30 430 -29 142 3 384 22
425 35 17 5 48 11 70 14 79 12 98 16 174 36 73 20 179 53 211 66 8 3 17 7 20
8 29 7 60 19 85 31 48 22 109 47 125 50 8 2 16 8 18 13 2 6 14 11 26 11 12 0
26 4 32 9 5 5 47 29 94 54 115 60 289 165 310 187 3 3 31 23 63 44 31 22 57
42 57 46 0 4 8 11 19 16 55 26 300 267 382 374 19 24 41 52 49 62 31 35 43 51
90 121 71 108 122 189 140 222 9 17 37 67 63 113 47 84 117 250 117 276 0 8 4
17 9 21 10 6 46 114 43 128 -1 4 6 22 15 40 9 18 16 36 15 41 -2 5 0 16 4 25
4 9 9 25 10 36 1 11 10 40 19 65 9 25 19 59 21 75 2 17 9 59 15 95 5 36 10 83
11 105 0 22 4 45 9 51 7 9 10 82 11 259 0 147 -16 388 -32 475 -13 74 -15 83
-22 100 -4 8 -7 22 -7 30 0 19 -11 71 -18 90 -3 8 -7 20 -8 25 0 6 -4 17 -7
25 -9 23 -32 104 -33 115 -1 6 -16 48 -34 95 -18 46 -35 91 -37 100 -7 31 -31
87 -68 159 -72 140 -121 231 -139 255 -4 6 -41 62 -81 124 -64 96 -128 180
-186 242 -130 140 -248 254 -320 310 -25 19 -55 43 -66 55 -29 27 -231 165
-242 165 -5 0 -15 6 -21 14 -7 8 -51 34 -99 59 -48 25 -109 56 -135 71 -26 14
-53 26 -59 26 -6 0 -16 7 -22 14 -6 9 -32 16 -61 18 -30 2 -56 9 -65 19 -15
16 -169 76 -220 86 -14 2 -32 7 -40 10 -8 4 -17 7 -20 7 -3 1 -10 4 -16 8 -6
4 -30 10 -54 13 -23 3 -47 8 -54 12 -6 4 -24 9 -41 10 -16 1 -70 9 -120 18
-172 30 -239 36 -453 38 -101 1 -185 1 -186 0z"/>
<path d="M4038 6664 c-3 -3 -70 -7 -149 -10 -134 -5 -211 -10 -216 -14 -2 -2
-15 -4 -30 -5 -57 -6 -109 -14 -150 -23 -23 -5 -44 -7 -47 -5 -2 3 -22 -1 -43
-8 -21 -7 -49 -14 -63 -14 -14 -1 -38 -7 -53 -13 -30 -13 -54 -19 -101 -27
-17 -2 -34 -11 -38 -19 -5 -9 -28 -20 -51 -27 -23 -6 -67 -23 -97 -37 -30 -14
-57 -26 -60 -27 -26 -6 -247 -117 -294 -148 -19 -12 -60 -38 -92 -57 -31 -19
-62 -40 -69 -47 -7 -7 -26 -20 -43 -30 -99 -59 -316 -249 -443 -388 -75 -83
-149 -171 -149 -178 0 -3 -30 -48 -66 -101 -36 -53 -62 -96 -59 -96 3 0 -5
-15 -18 -32 -32 -44 -187 -366 -187 -389 0 -4 -5 -20 -11 -36 -6 -15 -10 -29
-10 -31 1 -1 -5 -15 -13 -31 -8 -15 -17 -41 -20 -56 -3 -14 -10 -33 -17 -41
-6 -8 -9 -17 -6 -20 3 -3 1 -18 -5 -33 -10 -27 -18 -55 -22 -81 -2 -8 -9 -35
-16 -60 -7 -25 -14 -56 -16 -70 -4 -32 -11 -72 -24 -140 -18 -91 -22 -164 -22
-415 0 -256 4 -354 13 -370 8 -12 20 -66 25 -109 5 -48 9 -66 29 -131 10 -33
20 -67 21 -75 1 -8 9 -32 17 -53 9 -21 16 -41 16 -45 -1 -4 0 -9 1 -12 1 -3 3
-12 5 -20 2 -8 9 -28 16 -45 7 -16 13 -34 14 -40 1 -5 9 -24 18 -42 9 -18 18
-41 20 -51 2 -11 8 -26 14 -34 6 -7 21 -37 32 -67 21 -52 55 -117 87 -166 8
-13 16 -30 18 -37 1 -7 9 -24 19 -38 10 -14 43 -63 74 -110 66 -101 105 -154
116 -158 4 -2 7 -8 7 -13 0 -6 5 -15 10 -22 69 -82 132 -150 220 -237 117
-116 129 -126 215 -190 33 -25 62 -47 65 -50 14 -14 149 -100 158 -100 6 0 12
-4 14 -8 11 -28 418 -228 418 -205 0 3 8 -1 18 -9 18 -16 86 -42 167 -63 28
-7 86 -23 130 -35 44 -12 88 -23 98 -26 10 -2 26 -5 35 -8 9 -3 39 -7 65 -10
27 -3 52 -8 57 -11 5 -3 37 -8 72 -11 35 -3 74 -7 88 -11 38 -8 438 -10 495
-2 28 4 75 10 105 14 30 4 64 8 75 10 11 2 42 6 70 10 27 4 90 18 140 32 49
13 97 25 105 27 20 5 170 55 190 63 8 3 17 7 20 8 3 1 18 7 33 13 16 7 33 12
38 12 5 0 17 4 27 9 61 33 222 110 222 106 0 -2 15 6 34 18 19 12 65 40 101
62 58 34 209 137 240 162 6 4 35 28 65 53 100 82 124 104 233 215 59 60 115
122 123 138 8 15 19 27 23 27 5 0 18 15 30 33 11 17 28 41 38 52 47 52 223
332 223 355 0 6 8 24 18 38 10 15 40 79 67 142 27 63 53 121 59 128 5 8 11 22
13 33 7 47 8 49 39 129 4 8 8 24 10 35 2 11 8 38 14 60 6 22 12 47 14 56 3 9
9 33 15 55 27 103 28 106 51 319 14 122 19 335 9 335 -5 0 -9 42 -9 93 0 52
-3 97 -7 101 -4 3 -8 28 -9 54 -1 26 -5 61 -8 77 -3 17 -10 55 -16 85 -6 30
-11 62 -11 70 0 8 -3 22 -6 30 -3 8 -7 20 -8 25 -2 6 -8 30 -16 55 -7 25 -13
50 -14 55 -1 6 -3 12 -4 15 -2 3 -4 12 -6 20 -2 8 -9 29 -16 45 -6 17 -13 35
-15 40 -6 25 -35 106 -53 146 -11 24 -20 47 -21 51 -5 27 -186 364 -207 386
-7 8 -18 23 -24 35 -7 11 -16 26 -21 31 -5 6 -30 41 -56 77 -105 148 -284 333
-478 493 -53 43 -176 130 -245 172 -35 21 -66 41 -69 45 -6 6 -37 19 -46 18
-4 0 -10 3 -13 9 -6 9 -254 132 -266 132 -4 0 -32 12 -63 26 -31 14 -64 28
-74 29 -9 2 -31 11 -50 21 -18 10 -44 19 -58 20 -33 3 -51 6 -205 42 -155 36
-246 52 -300 54 -22 0 -44 3 -50 6 -5 3 -43 6 -85 7 -42 1 -81 4 -87 8 -5 4
-13 4 -15 1z m138 -48 c51 -3 136 -13 190 -22 55 -9 112 -18 127 -20 16 -2 37
-10 49 -18 18 -13 15 -14 -38 -14 -33 1 -66 5 -74 9 -21 12 -126 30 -185 32
-27 1 -54 5 -60 9 -11 7 -365 3 -455 -5 -134 -12 -232 -30 -237 -44 -5 -14 34
-54 179 -185 142 -128 229 -209 294 -273 38 -38 110 -106 158 -150 49 -44 114
-105 145 -135 32 -30 73 -68 93 -85 50 -43 188 -168 274 -250 41 -38 97 -90
124 -115 28 -25 74 -67 103 -95 29 -27 85 -79 126 -115 40 -36 95 -85 121
-110 26 -25 62 -58 81 -74 19 -16 70 -63 114 -105 105 -99 210 -195 276 -251
29 -25 87 -76 129 -115 42 -38 116 -106 165 -150 49 -44 97 -89 108 -99 11
-11 50 -45 86 -76 36 -31 80 -70 97 -86 17 -16 69 -63 115 -104 82 -72 133
-120 231 -214 26 -26 54 -46 62 -46 27 0 35 80 31 295 -2 116 -6 235 -9 265
-2 30 -1 59 2 65 13 19 22 -122 22 -345 1 -224 -5 -307 -20 -324 -4 -4 -38 20
-74 54 -36 35 -73 68 -83 75 -10 7 -61 54 -113 105 -52 50 -102 96 -111 101
-18 9 -76 60 -139 119 -20 19 -79 73 -131 120 -51 47 -110 101 -130 120 -21
19 -61 55 -89 80 -28 25 -66 59 -84 75 -18 17 -73 66 -122 110 -49 44 -116
105 -148 135 -33 30 -87 80 -119 110 -33 30 -70 64 -81 75 -12 11 -71 64 -132
119 -60 54 -123 113 -140 130 -17 17 -65 60 -105 96 -40 36 -103 92 -139 126
-36 33 -96 89 -135 124 -38 34 -100 90 -136 124 -80 73 -192 175 -234 211 -16
14 -93 88 -170 163 -77 75 -187 180 -245 232 -57 52 -146 135 -197 184 -81 77
-95 86 -109 75 -15 -12 -7 -23 69 -94 242 -229 281 -265 285 -265 6 0 77 -68
221 -210 70 -69 165 -159 211 -201 47 -42 99 -89 115 -104 17 -15 66 -59 109
-99 43 -39 120 -110 170 -157 97 -92 151 -142 248 -229 33 -30 95 -86 136
-125 41 -38 91 -86 112 -105 20 -19 72 -66 115 -105 132 -118 188 -169 225
-205 31 -31 145 -134 206 -187 39 -34 179 -161 232 -212 29 -28 78 -72 109
-98 31 -26 81 -72 112 -100 30 -29 58 -53 62 -53 4 0 31 -24 61 -52 31 -29 95
-89 144 -133 48 -44 100 -91 114 -105 14 -14 39 -36 55 -50 45 -38 58 -57 48
-72 -4 -7 -9 -26 -10 -43 0 -16 -9 -55 -17 -85 -9 -30 -18 -62 -19 -70 -12
-63 -21 -99 -32 -120 -7 -14 -16 -43 -20 -65 -4 -22 -16 -60 -26 -85 -11 -25
-24 -54 -28 -65 -5 -11 -21 -45 -35 -76 -14 -31 -26 -60 -26 -65 0 -5 -6 -20
-14 -34 -130 -242 -221 -389 -281 -451 -8 -9 -15 -19 -15 -23 0 -24 -288 -320
-405 -416 -37 -30 -75 -62 -84 -70 -10 -8 -25 -19 -34 -25 -9 -5 -46 -31 -84
-56 -127 -86 -178 -115 -308 -179 -71 -35 -142 -69 -156 -76 -14 -8 -29 -11
-31 -8 -3 3 -26 -7 -52 -21 -25 -14 -47 -25 -48 -24 -2 1 -41 -11 -88 -26
-111 -35 -151 -41 -164 -23 -11 14 -52 51 -196 178 -40 36 -88 80 -105 98 -18
17 -35 32 -39 32 -4 0 -33 24 -64 54 -31 29 -86 80 -122 112 -36 32 -74 70
-86 86 -19 24 -60 63 -194 180 -76 66 -191 171 -239 217 -25 24 -75 69 -110
100 -36 31 -79 70 -97 86 -18 17 -65 59 -105 95 -75 66 -165 149 -273 252 -34
32 -77 70 -96 85 -19 16 -55 47 -80 69 -117 107 -161 149 -245 228 -49 47 -93
86 -96 86 -11 0 -81 59 -193 163 -60 56 -121 112 -135 124 -14 12 -60 53 -101
91 -41 38 -95 87 -120 108 -25 21 -47 42 -48 47 -2 4 -24 23 -48 41 -43 33
-240 215 -356 328 -63 62 -68 81 -47 163 6 22 12 49 14 60 3 11 9 40 15 65 6
25 12 56 14 70 2 14 18 68 36 120 96 284 240 572 367 735 34 44 36 47 63 85
67 95 298 324 425 421 17 13 32 26 35 29 6 7 264 178 301 199 173 101 389 196
549 242 25 7 50 15 55 18 6 3 13 6 18 7 4 1 8 2 10 4 1 1 16 4 32 6 17 2 53 9
80 16 28 6 59 13 70 14 11 2 29 5 40 7 65 14 159 27 233 32 35 2 66 5 68 7 5
5 216 1 330 -6z m452 -82 c36 -18 39 -22 15 -19 -23 2 -73 23 -73 30 0 10 27
5 58 -11z m181 -47 c36 -11 71 -21 77 -23 6 -1 29 -10 50 -20 22 -11 41 -19
44 -20 27 -5 220 -94 241 -111 8 -7 19 -13 24 -13 20 0 244 -141 302 -190 7
-5 15 -10 18 -10 3 0 13 -8 23 -17 19 -18 24 -22 101 -83 24 -19 75 -65 113
-102 38 -38 73 -68 79 -68 5 0 9 -4 9 -9 0 -5 19 -29 43 -54 158 -165 297
-368 425 -619 51 -101 63 -127 72 -166 1 -4 5 -11 10 -17 4 -5 17 -41 29 -80
12 -38 27 -78 32 -89 6 -10 12 -26 14 -35 2 -9 11 -43 20 -76 9 -33 19 -71 21
-85 3 -14 10 -43 16 -65 6 -22 13 -53 14 -70 2 -16 7 -50 10 -74 4 -28 3 -41
-4 -37 -9 5 -14 27 -27 116 -6 47 -13 79 -38 187 -2 7 -6 16 -10 19 -4 4 -7
18 -7 31 0 13 -7 37 -15 53 -9 17 -12 30 -8 30 4 0 2 5 -5 12 -7 7 -12 18 -12
26 0 7 -14 48 -31 90 -17 43 -32 82 -33 87 -2 11 -112 230 -146 290 -34 60
-165 255 -195 291 -5 7 -30 36 -55 65 -61 72 -272 284 -338 338 -59 48 -82 66
-174 130 -35 25 -65 47 -68 51 -3 3 -19 12 -36 19 -18 7 -40 20 -50 29 -28 25
-207 119 -324 170 -75 32 -272 100 -312 107 -21 4 -38 11 -38 16 0 12 59 2
139 -24z m-797 -21 c29 -13 75 -42 102 -65 48 -41 49 -41 122 -39 76 2 85 8
89 51 3 25 34 57 51 50 8 -3 14 0 14 6 0 18 29 13 96 -19 63 -31 85 -54 90
-97 2 -22 -39 -73 -59 -73 -12 0 -1 -58 15 -77 7 -9 23 -12 47 -8 61 9 68 14
89 65 26 63 79 99 143 96 89 -4 153 -82 119 -146 -13 -24 -140 -123 -140 -109
0 8 -11 9 -32 4 -18 -3 -39 -8 -46 -9 -23 -4 -36 -24 -24 -38 12 -15 80 -16
103 -3 8 5 46 8 85 6 l71 -3 7 36 c8 42 82 122 121 132 28 7 83 -12 103 -36
60 -72 40 -151 -55 -211 -29 -18 -33 -26 -33 -65 l0 -45 48 7 c54 8 68 23 77
80 8 55 85 131 130 129 59 -3 101 -36 131 -105 26 -60 -13 -131 -106 -193 -21
-14 -34 -30 -32 -40 4 -25 -15 -21 -21 4 -4 16 -10 20 -24 14 -10 -4 -26 -7
-36 -7 -23 1 -37 -36 -25 -63 7 -17 17 -20 49 -17 21 2 41 8 44 12 3 5 17 3
31 -5 44 -23 97 -1 99 40 1 27 41 88 75 115 50 40 101 40 159 2 55 -37 81 -77
81 -125 0 -70 -42 -117 -126 -142 -38 -11 -53 -21 -58 -37 l-6 -23 -15 21
c-12 18 -20 21 -49 14 -18 -4 -38 -10 -44 -14 -16 -9 -20 -51 -6 -64 18 -17
93 -12 103 6 7 13 10 12 15 -5 6 -17 16 -21 65 -22 55 -1 71 7 70 34 0 3 6 12
13 19 7 7 26 29 42 48 20 26 41 39 73 47 43 11 47 10 90 -21 25 -18 57 -54 71
-79 24 -42 25 -48 12 -78 -19 -47 -77 -99 -117 -107 -40 -8 -55 -32 -51 -82 3
-35 5 -37 39 -40 35 -3 37 -1 63 53 41 82 108 110 170 70 49 -32 64 -86 41
-140 -12 -26 -77 -95 -91 -95 -6 0 -19 -9 -29 -20 -15 -17 -20 -46 -16 -97 1
-18 56 -16 71 2 7 8 9 15 5 15 -4 0 7 18 25 40 17 22 34 39 38 38 4 -1 14 2
24 6 26 12 103 -37 125 -79 17 -32 10 -87 -15 -123 -13 -18 -27 -30 -32 -27
-4 3 -13 -2 -20 -10 -6 -7 -17 -12 -24 -9 -20 8 -34 -17 -38 -65 -3 -43 -2
-45 32 -54 31 -8 36 -6 55 20 26 36 53 63 63 63 16 0 72 -57 82 -85 7 -16 13
-54 14 -83 2 -48 0 -55 -25 -73 -15 -11 -31 -19 -36 -18 -22 4 -33 -3 -33 -20
0 -11 -5 -23 -11 -27 -8 -5 -10 1 -7 19 3 16 0 31 -8 38 -8 6 -14 8 -14 4 0
-4 -6 -2 -14 4 -12 10 -18 7 -31 -18 -15 -30 -15 -32 10 -57 20 -20 29 -23 44
-14 16 8 20 7 18 -7 -1 -19 30 -73 42 -73 8 0 81 -96 81 -106 0 -4 7 -15 15
-24 37 -41 49 -240 16 -273 -61 -61 -221 119 -225 255 -1 9 -4 20 -8 24 -5 4
-8 22 -8 41 0 23 -6 36 -17 40 -10 3 -26 13 -35 21 -16 13 -19 11 -36 -29 -23
-54 -44 -73 -71 -64 -29 9 -71 63 -71 91 0 36 42 74 74 68 41 -7 63 10 62 48
-1 28 -6 33 -36 40 -38 8 -80 -7 -80 -28 0 -18 -58 -64 -81 -64 -56 0 -100 50
-104 117 -2 32 4 44 36 76 21 21 42 36 47 33 17 -10 44 31 40 61 -3 25 -7 28
-41 28 -32 0 -41 -5 -55 -29 -26 -46 -55 -77 -85 -93 -25 -13 -32 -12 -65 4
-43 21 -80 71 -78 106 3 58 77 137 128 137 13 0 18 8 19 28 0 15 2 37 3 50 3
24 -17 33 -64 29 -19 -2 -32 -15 -56 -61 -42 -81 -75 -107 -127 -105 -33 2
-49 9 -74 36 -55 57 -44 139 28 206 13 12 27 22 31 22 15 0 48 35 48 52 0 14
3 13 16 -5 13 -19 23 -22 49 -19 18 3 38 8 44 11 12 8 15 75 4 77 -42 6 -78 3
-88 -8 -11 -10 -15 -10 -25 2 -7 9 -26 12 -56 10 -53 -5 -64 -10 -64 -35 0
-10 -5 -22 -11 -25 -6 -4 -8 -13 -5 -21 3 -8 2 -14 -2 -14 -4 0 -25 -16 -46
-35 -34 -30 -47 -35 -91 -35 -47 0 -53 3 -85 40 -43 50 -51 115 -19 166 17 29
85 84 103 84 19 0 41 36 43 70 2 56 -7 63 -65 55 -44 -6 -52 -11 -66 -40 -9
-18 -16 -38 -16 -44 0 -6 -5 -11 -10 -11 -6 0 -15 -10 -21 -23 -17 -37 -108
-63 -158 -46 -63 22 -96 119 -62 179 20 34 81 89 108 96 26 7 30 17 29 69 -1
30 -5 39 -16 36 -8 -2 -24 -5 -35 -5 -38 -3 -64 -17 -71 -39 -5 -12 -7 -25 -6
-29 1 -4 -19 -27 -44 -52 -40 -40 -51 -46 -88 -46 -23 0 -47 5 -54 12 -7 7
-12 8 -12 4 0 -9 -59 62 -61 73 -6 37 -4 70 5 91 13 32 59 75 97 91 27 11 30
16 27 53 -2 30 -7 40 -18 38 -8 -2 -32 -5 -53 -6 -45 -3 -62 -18 -62 -54 -1
-41 -13 -65 -43 -87 -71 -51 -162 -1 -162 90 0 36 6 52 33 82 17 21 35 40 40
41 4 2 7 25 7 52 0 38 -4 49 -17 52 -30 7 -73 -12 -73 -32 0 -11 -4 -21 -10
-25 -5 -3 -7 -11 -4 -18 2 -7 -10 -27 -27 -45 -23 -24 -39 -32 -61 -30 -32 3
-76 38 -97 79 -14 29 -6 55 31 96 14 15 19 31 16 52 -5 32 6 42 16 16 7 -19
36 -19 64 1 20 14 21 17 8 43 -12 23 -21 27 -53 26 -27 0 -39 -5 -41 -18 -3
-16 -5 -16 -28 2 -18 14 -31 18 -47 12 -22 -9 -23 -16 -14 -73 7 -42 -22 -63
-66 -49 -39 13 -87 65 -87 93 0 11 13 27 30 36 36 20 37 29 6 63 -17 20 -36
28 -72 33 -127 14 -211 54 -243 114 -16 29 -7 57 27 81 53 37 113 40 184 7z
m-2482 -2266 c52 -47 113 -103 135 -125 22 -22 62 -58 89 -80 28 -22 77 -65
110 -96 135 -126 210 -190 237 -205 16 -8 29 -20 29 -26 0 -9 33 -43 65 -66 6
-4 51 -43 100 -87 49 -44 94 -83 100 -88 37 -27 108 -90 155 -137 31 -30 71
-68 90 -84 19 -16 72 -62 117 -104 46 -41 91 -82 101 -91 55 -48 199 -179 217
-198 12 -13 25 -23 28 -23 3 0 17 -10 29 -22 29 -28 114 -106 233 -213 49 -44
118 -107 154 -140 60 -54 141 -127 300 -270 31 -27 108 -100 171 -162 106
-102 155 -148 311 -288 88 -79 209 -187 242 -217 35 -32 31 -58 -10 -59 -15 0
-35 -2 -43 -4 -41 -10 -130 -25 -175 -29 -27 -3 -75 -8 -104 -12 -115 -14
-472 -6 -546 12 -11 3 -38 7 -60 9 -106 10 -275 50 -460 110 -80 26 -222 83
-294 119 -41 20 -80 36 -88 36 -7 0 -13 4 -13 8 0 5 -17 16 -38 25 -20 9 -68
37 -105 62 -37 25 -70 45 -73 45 -3 0 -25 15 -48 33 -24 17 -54 39 -66 47 -38
26 -72 53 -147 119 -260 223 -468 497 -633 832 -33 66 -59 120 -59 122 1 4
-22 63 -36 92 -20 44 -53 136 -61 170 -4 17 -11 36 -17 43 -5 6 -7 12 -4 12 4
0 0 18 -8 39 -7 22 -11 41 -9 44 3 3 -1 18 -9 34 -8 15 -18 51 -22 78 -5 28
-10 59 -11 70 -9 51 -11 105 -4 105 12 0 17 -22 14 -62 -1 -21 2 -38 7 -38 5
0 8 -12 6 -27 -2 -16 -1 -32 3 -38 8 -12 32 -93 36 -120 2 -11 8 -38 14 -60 6
-22 12 -44 13 -50 7 -25 30 -91 36 -100 3 -5 6 -14 7 -20 4 -20 67 -170 76
-182 6 -7 8 -13 4 -13 -7 0 80 -172 124 -245 17 -27 34 -57 37 -65 10 -21 47
-78 78 -120 15 -19 49 -66 77 -105 91 -128 212 -259 333 -360 33 -27 66 -58
73 -67 7 -10 19 -18 27 -18 8 0 19 -9 25 -20 6 -11 15 -20 20 -20 5 0 47 -27
92 -59 46 -32 102 -70 126 -83 24 -12 51 -27 60 -33 84 -49 176 -95 219 -109
29 -10 55 -22 58 -26 3 -5 25 -15 48 -21 23 -6 60 -19 82 -29 60 -26 78 -32
100 -35 22 -3 132 -33 155 -42 8 -3 22 -7 30 -8 21 -4 118 -23 155 -31 17 -3
46 -7 65 -9 19 -2 42 -5 50 -8 43 -15 424 -25 515 -14 62 8 178 19 195 19 8 0
22 2 30 5 8 3 37 7 65 10 27 2 54 8 60 14 13 13 -48 71 -266 259 -87 75 -174
157 -293 275 -56 56 -128 123 -161 150 -33 28 -80 70 -105 94 -25 24 -54 49
-64 57 -10 7 -49 41 -86 76 -36 35 -97 90 -134 123 -37 33 -90 81 -116 106
-27 26 -60 55 -74 67 -14 11 -69 60 -123 108 -121 112 -141 130 -194 179 -24
22 -84 76 -134 120 -138 122 -152 135 -239 217 -112 105 -160 148 -167 148 -3
0 -22 15 -41 33 -19 17 -53 48 -75 67 -21 19 -86 78 -144 130 -58 52 -131 118
-163 145 -33 28 -67 57 -76 67 -10 9 -47 42 -82 74 -34 31 -108 98 -163 149
-174 159 -184 167 -200 161 -10 -4 -15 -19 -15 -50 0 -25 -5 -48 -10 -51 -7
-4 -9 19 -6 69 6 91 13 107 35 80 9 -10 59 -57 111 -104z m-145 -241 c0 -99 3
-183 7 -185 11 -7 7 -114 -4 -114 -5 0 -8 24 -7 53 1 30 -1 59 -5 66 -17 26
-9 361 8 361 1 0 2 -81 1 -181z m232 13 c35 -22 98 -113 109 -157 1 -5 8 -23
14 -40 7 -16 14 -39 16 -50 5 -33 12 -79 13 -91 1 -6 16 -17 34 -26 27 -13 34
-13 45 -2 6 7 12 22 12 32 0 10 11 29 26 43 23 22 27 22 52 9 14 -9 35 -30 45
-48 16 -27 17 -37 7 -61 -12 -31 -46 -51 -85 -51 -45 0 -59 -78 -14 -81 68 -5
74 -3 85 19 39 78 99 94 151 40 17 -18 34 -43 38 -56 11 -37 -14 -80 -61 -108
-80 -47 -89 -115 -15 -111 27 2 37 9 52 36 26 49 57 79 95 91 60 20 117 -29
125 -105 4 -41 -44 -108 -92 -130 -40 -18 -63 -51 -57 -81 3 -15 13 -19 52
-20 41 -1 49 2 56 22 20 53 62 105 100 124 38 19 43 20 73 5 66 -32 91 -111
56 -177 -16 -29 -76 -86 -100 -93 -10 -3 -21 -15 -24 -26 -7 -22 -21 -25 -28
-6 -6 17 -62 11 -77 -8 -6 -8 -10 -26 -8 -41 2 -23 9 -28 36 -32 22 -2 40 3
52 13 16 14 18 14 23 0 5 -11 19 -15 52 -13 52 2 59 8 74 64 10 39 28 60 81
97 76 53 190 -25 195 -135 2 -36 -3 -47 -37 -84 -21 -23 -54 -49 -73 -58 -19
-9 -40 -26 -45 -37 -14 -26 -8 -94 8 -93 7 1 29 2 51 3 36 1 40 4 65 55 28 58
77 102 121 110 15 3 30 7 32 10 9 8 67 -17 94 -41 30 -27 42 -71 33 -118 -5
-29 -72 -115 -88 -115 -5 0 -21 -9 -37 -21 -25 -18 -30 -27 -27 -58 3 -34 5
-36 33 -32 17 2 40 4 52 5 17 0 27 10 38 40 61 151 217 169 270 31 17 -46 17
-48 -4 -91 -15 -28 -39 -54 -72 -75 -42 -28 -49 -37 -49 -65 0 -38 12 -49 38
-35 11 6 31 12 47 15 35 6 35 6 42 50 6 41 57 102 88 107 42 6 89 -20 108 -60
9 -20 17 -48 17 -60 0 -31 -35 -96 -65 -119 -23 -18 -25 -25 -19 -62 7 -42 7
-42 43 -35 48 9 51 12 51 44 0 41 39 93 78 103 37 10 57 0 94 -47 25 -32 29
-102 6 -119 -23 -17 -39 -53 -31 -73 13 -37 43 -71 68 -75 27 -6 26 -7 29 66
2 44 28 70 60 60 55 -16 102 -69 92 -102 -4 -10 -18 -24 -31 -30 -31 -14 -31
-24 0 -58 20 -22 35 -27 77 -29 29 -1 61 -5 71 -9 9 -3 25 -9 35 -13 9 -3 22
-7 29 -9 21 -4 71 -44 97 -76 23 -30 23 -34 10 -60 -19 -37 -58 -55 -124 -57
-76 -2 -153 35 -236 114 -15 14 -141 10 -159 -5 -8 -7 -15 -27 -15 -45 0 -18
-6 -38 -13 -44 -22 -17 -75 -25 -90 -12 -8 6 -17 8 -20 5 -10 -10 -73 24 -106
57 -40 40 -39 64 4 103 33 31 44 63 28 80 -5 4 -8 13 -8 19 0 14 -35 17 -52 5
-6 -5 -17 -8 -25 -7 -27 3 -37 -2 -44 -23 -9 -25 -11 -33 -13 -48 -3 -27 -64
-79 -100 -85 -111 -19 -213 74 -163 147 24 34 64 69 90 79 16 6 22 17 22 38 0
35 -4 37 -74 33 -56 -4 -59 -6 -72 -70 -5 -28 -36 -63 -72 -81 -83 -43 -172 0
-189 92 -5 29 62 121 103 140 32 16 35 21 30 45 -4 15 -8 34 -10 42 -2 11 -14
14 -41 12 -44 -3 -65 -17 -65 -43 0 -10 -5 -21 -10 -24 -6 -4 -8 -10 -5 -15 8
-13 -18 -60 -55 -97 -26 -26 -41 -33 -72 -33 -149 0 -200 167 -83 269 15 12
40 27 56 33 19 7 29 17 29 31 0 18 2 19 18 5 21 -19 78 -13 86 9 3 8 3 25 0
39 -5 21 -12 24 -50 24 -42 0 -49 -6 -45 -35 1 -5 -7 1 -17 14 -16 20 -24 22
-53 15 -19 -4 -38 -8 -44 -8 -5 -1 -10 -8 -11 -16 0 -8 -6 -28 -12 -43 -7 -16
-12 -32 -12 -36 0 -13 -92 -91 -101 -85 -5 3 -16 1 -25 -4 -20 -11 -98 25
-131 60 -34 37 -54 95 -43 126 2 4 4 12 4 18 2 20 76 76 123 94 48 18 48 18
51 68 l3 51 -44 6 c-54 8 -82 -5 -92 -42 -15 -64 -111 -124 -172 -108 -27 6
-80 51 -96 80 -17 33 -19 86 -2 120 15 33 99 95 127 95 18 0 25 20 24 69 -1
29 -6 36 -27 42 -34 9 -41 3 -67 -51 -12 -25 -31 -53 -43 -64 -53 -45 -125
-37 -159 18 -38 62 -13 139 64 194 52 38 69 64 70 106 0 24 -6 31 -27 37 -22
6 -31 2 -47 -18 -11 -14 -20 -30 -20 -35 0 -22 -54 -58 -87 -58 -64 0 -132 63
-133 122 0 47 46 103 93 114 17 3 37 14 44 23 10 13 14 13 21 3 15 -23 62 -22
77 2 13 20 11 65 -4 67 -3 0 -16 2 -29 5 -14 2 -24 -2 -27 -11 -15 -47 -19
-49 -24 -12 -3 21 -8 37 -11 36 -3 -1 -15 3 -28 10 -21 11 -27 9 -66 -34 -45
-48 -60 -50 -100 -16 -21 18 -50 71 -39 71 4 0 2 5 -5 12 -14 14 -16 87 -3
107 5 8 23 16 40 17 45 3 48 9 46 71 -1 51 -6 62 -35 93 -34 36 -100 133 -100
147 0 4 -6 19 -13 33 -12 23 -20 84 -19 147 0 32 24 82 42 86 20 6 50 -2 77
-21z"/>
<path d="M3348 6514 c-3 -3 -16 -6 -29 -8 -13 -2 -44 -9 -69 -16 -25 -7 -49
-14 -55 -16 -26 -6 -131 -47 -140 -55 -5 -5 -16 -9 -24 -9 -13 0 -142 -57
-211 -94 -82 -44 -148 -81 -172 -97 -14 -11 -29 -19 -32 -19 -16 0 -240 -160
-315 -225 -292 -253 -444 -446 -635 -809 -28 -54 -116 -273 -116 -290 0 -4 -6
-22 -14 -39 -27 -63 -41 -102 -42 -127 -1 -14 -11 -56 -22 -95 -12 -38 -20
-72 -20 -75 1 -3 -1 -12 -5 -20 -3 -8 -10 -39 -15 -68 l-9 -54 42 -41 c23 -23
71 -69 106 -101 35 -33 112 -105 171 -160 59 -56 120 -112 136 -126 16 -14 64
-56 106 -95 118 -106 139 -125 222 -195 42 -36 109 -96 149 -135 40 -38 86
-80 102 -93 71 -56 191 -163 224 -198 20 -22 58 -57 85 -79 26 -22 60 -51 75
-65 15 -14 53 -47 84 -75 50 -44 127 -115 268 -247 21 -21 43 -38 46 -38 8 0
126 -108 245 -224 39 -37 91 -84 115 -104 24 -20 58 -50 75 -67 18 -16 73 -66
121 -110 49 -44 109 -99 134 -122 24 -24 48 -43 53 -43 4 0 8 -7 8 -15 0 -8 3
-15 8 -15 4 0 46 -37 93 -83 48 -45 110 -102 139 -127 29 -25 84 -75 124 -111
87 -82 230 -207 263 -233 25 -19 26 -19 99 2 40 12 83 22 94 22 11 0 20 5 20
10 0 6 6 10 14 10 7 0 35 9 62 19 79 31 89 34 97 33 4 -1 7 2 7 6 0 5 19 15
43 22 42 13 230 108 277 140 14 10 57 37 95 60 132 81 290 210 420 344 160
164 185 192 248 284 28 39 55 72 59 72 4 0 8 4 8 10 0 5 20 41 45 80 25 39 45
72 45 75 0 3 11 23 25 45 14 22 22 40 18 40 -5 0 -3 4 3 8 10 6 55 95 98 195
9 20 24 54 33 75 10 20 18 39 18 42 0 3 9 30 20 60 10 30 20 60 22 65 1 6 10
35 19 65 9 30 17 62 18 70 2 8 11 42 21 75 10 33 19 74 21 90 1 17 5 38 9 47
7 18 -39 70 -136 149 -24 20 -65 56 -90 80 -80 76 -201 184 -293 264 -49 42
-108 95 -132 118 -23 23 -69 65 -100 92 -32 28 -67 59 -78 71 -17 17 -146 133
-241 217 -11 9 -43 38 -71 65 -28 26 -77 72 -110 102 -33 30 -115 107 -184
170 -68 63 -136 126 -151 140 -125 112 -195 176 -264 240 -220 205 -309 286
-319 292 -6 3 -34 28 -61 55 -28 26 -93 86 -144 133 -111 101 -198 186 -227
220 -11 14 -50 50 -85 80 -56 48 -149 134 -269 250 -20 19 -68 63 -107 98 -39
34 -84 76 -102 92 -29 28 -51 37 -63 24z m24 -52 c7 -10 21 -23 30 -28 20 -11
111 -93 250 -226 56 -54 103 -98 105 -98 2 0 23 -18 46 -39 23 -22 54 -49 69
-60 15 -12 30 -30 33 -41 4 -11 12 -20 20 -20 7 0 23 -12 36 -27 45 -50 184
-184 219 -211 19 -15 80 -70 135 -123 55 -54 119 -113 142 -132 23 -19 39 -37
36 -41 -4 -3 0 -6 9 -6 8 0 26 -12 40 -27 13 -16 62 -62 107 -103 45 -41 105
-96 133 -122 28 -27 55 -48 60 -48 4 0 8 -7 8 -15 0 -8 9 -19 19 -25 11 -5 32
-22 48 -37 16 -16 47 -44 69 -63 22 -20 46 -44 54 -56 8 -11 25 -27 37 -35 22
-15 151 -132 292 -265 116 -109 129 -121 226 -204 50 -43 100 -88 111 -101 12
-13 35 -34 50 -47 42 -33 123 -106 214 -194 44 -43 85 -78 90 -78 5 0 37 -27
72 -61 35 -33 68 -64 73 -70 6 -5 19 -18 30 -28 11 -11 47 -43 80 -73 33 -29
91 -83 130 -121 70 -68 70 -68 71 -125 1 -31 -3 -63 -8 -69 -6 -7 -12 -30 -15
-50 -3 -21 -16 -72 -30 -113 -14 -41 -26 -80 -27 -87 -1 -7 -5 -16 -9 -19 -4
-4 -7 -15 -7 -24 0 -10 -11 -42 -24 -71 -32 -74 -40 -92 -41 -104 -2 -19 -115
-234 -152 -292 -21 -32 -43 -69 -49 -83 -14 -31 -132 -189 -199 -266 -147
-170 -396 -391 -550 -488 -153 -97 -372 -212 -421 -222 -7 -1 -38 -13 -70 -27
-57 -24 -207 -75 -244 -82 -18 -4 -100 64 -196 162 -29 29 -56 53 -60 53 -5 0
-39 28 -75 63 -36 34 -86 79 -110 100 -94 82 -182 163 -203 186 -37 43 -165
163 -288 271 -16 14 -46 41 -66 60 -123 116 -359 331 -408 372 -21 18 -68 60
-104 93 -35 33 -100 93 -145 133 -44 41 -108 99 -142 130 -33 32 -96 89 -140
128 -43 39 -101 92 -129 117 -28 26 -54 47 -58 47 -8 0 -69 55 -276 250 -21
19 -66 60 -101 90 -34 30 -75 66 -90 80 -15 14 -58 52 -95 85 -36 33 -84 77
-105 98 -22 20 -41 37 -44 37 -2 0 -15 10 -27 23 -13 12 -94 89 -181 172 -173
165 -163 147 -136 255 6 25 12 54 14 65 2 11 11 47 20 80 9 33 17 67 20 75 2
8 11 35 20 60 9 25 18 52 20 60 3 17 34 94 61 155 10 22 18 42 19 45 6 19 18
47 26 60 5 8 16 29 24 46 8 18 31 60 52 95 20 35 36 65 35 67 -3 3 103 157
147 212 20 25 39 50 43 55 56 79 288 309 411 406 33 25 258 179 263 179 2 0
32 17 66 38 100 61 178 103 178 96 0 -4 8 0 18 8 9 8 37 23 62 33 62 25 342
123 357 124 6 1 18 -7 25 -17z"/>
<path d="M3024 6089 c-3 -5 -13 -9 -22 -8 -22 3 -91 -10 -117 -21 -11 -5 -42
-16 -70 -25 -96 -31 -230 -122 -302 -205 -12 -14 -40 -45 -62 -69 -22 -24 -45
-57 -52 -72 -6 -16 -15 -29 -20 -29 -5 0 -8 -3 -7 -7 1 -5 -6 -24 -17 -43 -11
-19 -20 -37 -20 -40 0 -3 -12 -27 -25 -55 -13 -27 -25 -54 -25 -60 -1 -5 -5
-17 -8 -25 -5 -14 -15 -58 -20 -90 -2 -9 -6 -20 -9 -25 -3 -6 -6 -73 -7 -149
-1 -112 2 -145 15 -164 15 -22 17 -23 34 -7 10 9 24 37 31 63 18 66 51 121
116 194 31 35 59 65 62 68 21 17 51 66 51 84 0 11 -9 32 -20 46 -22 29 -25 57
-8 97 6 15 12 30 13 33 18 68 98 188 173 259 60 56 192 138 204 125 3 -2 11 2
18 11 7 8 22 15 35 15 12 0 25 3 29 7 15 15 265 25 282 11 7 -5 16 -8 20 -7
27 7 133 -41 206 -93 54 -38 151 -141 184 -195 17 -28 40 -75 51 -105 12 -29
27 -69 34 -88 14 -36 23 -305 11 -325 -4 -5 -7 -21 -8 -35 -2 -38 -70 -170
-109 -212 -47 -49 -119 -108 -134 -108 -6 0 -11 -3 -11 -7 0 -10 -66 -40 -105
-49 -16 -4 -35 -11 -41 -15 -6 -5 -20 -7 -32 -4 -12 2 -23 1 -26 -3 -8 -13
-226 2 -254 17 -17 9 -23 7 -36 -11 -19 -26 -14 -31 39 -49 58 -18 79 -21 190
-23 109 -1 205 6 223 18 7 4 21 9 33 11 11 2 54 21 95 41 112 57 234 182 296
305 26 52 50 115 54 142 3 26 9 49 13 51 10 7 5 124 -9 206 -14 85 -75 229
-129 304 -42 61 -149 166 -168 166 -7 0 -13 3 -13 8 0 8 -80 55 -152 89 -27
12 -48 19 -48 16 0 -3 -6 -1 -12 4 -11 9 -36 16 -113 31 -50 9 -295 10 -301 1z"/>
<path d="M2875 5392 c-6 -4 -25 -30 -43 -58 -18 -29 -44 -64 -57 -78 -32 -34
-75 -100 -102 -156 -44 -91 -47 -114 -18 -146 16 -18 21 -39 23 -106 1 -46 6
-121 12 -168 13 -116 19 -264 20 -455 1 -187 -2 -213 -26 -251 -20 -33 -94
-104 -108 -104 -18 0 -124 -71 -130 -87 -13 -34 20 -37 89 -8 22 10 40 17 40
16 0 -1 20 5 45 12 49 15 236 14 267 0 10 -5 29 -8 43 -7 14 1 30 -1 35 -5 10
-7 67 -14 110 -14 56 0 75 4 90 19 24 25 4 38 -61 41 -90 2 -179 58 -199 123
-1 3 -5 12 -8 20 -16 39 -30 646 -16 665 15 20 26 732 13 745 -5 5 -14 6 -19
2z"/>
<path d="M3994 5232 c-18 -11 -33 -47 -26 -59 4 -6 30 -11 57 -11 52 -1 83 -7
198 -41 95 -28 218 -107 262 -168 11 -15 29 -37 40 -48 11 -12 26 -32 32 -45
7 -14 17 -32 23 -40 8 -12 25 -51 35 -80 1 -3 4 -12 8 -20 5 -15 16 -69 24
-125 9 -64 9 -231 0 -243 -6 -7 -7 -15 -4 -18 9 -10 -64 -157 -102 -204 -72
-90 -117 -128 -191 -163 -120 -56 -256 -72 -388 -44 -48 11 -66 11 -79 2 -27
-20 6 -48 72 -61 111 -21 270 -25 315 -8 8 4 34 8 58 9 24 2 49 8 56 15 8 6
22 12 32 14 32 7 100 42 159 81 17 12 42 27 56 34 29 15 116 139 150 216 12
28 28 62 35 77 8 14 14 49 14 76 0 28 4 53 8 56 11 7 -3 166 -20 226 -66 233
-181 368 -418 489 -105 54 -139 63 -280 81 -93 11 -112 12 -126 2z"/>
<path d="M3656 5159 c-38 -21 -73 -39 -77 -39 -26 0 -153 -103 -242 -195 -46
-49 -98 -125 -92 -135 5 -9 97 -6 112 3 5 3 25 9 43 12 43 8 51 15 95 81 44
67 138 159 187 185 58 30 96 101 65 121 -16 10 -12 11 -91 -33z"/>
<path d="M3275 4673 c-92 -4 -110 -15 -126 -77 -5 -23 -13 -48 -16 -56 -10
-24 -13 -39 -22 -140 -13 -153 2 -280 34 -280 7 0 27 37 44 83 44 112 70 153
133 212 29 28 64 65 77 84 24 34 24 35 8 81 -9 26 -17 57 -17 68 0 16 -26 39
-33 30 -1 -1 -38 -4 -82 -5z"/>
<path d="M3738 4523 c-8 -10 -18 -27 -22 -38 -3 -11 -21 -36 -38 -57 -18 -20
-42 -48 -53 -62 -11 -15 -31 -39 -44 -54 -45 -51 -98 -192 -73 -192 15 0 36
-60 35 -97 0 -18 3 -33 6 -33 4 0 8 -33 9 -72 3 -115 13 -252 19 -268 4 -8 8
-67 10 -130 1 -63 5 -150 8 -192 3 -43 1 -78 -4 -78 -5 0 -7 -13 -6 -28 4 -53
-69 -173 -96 -156 -5 3 -9 0 -9 -5 0 -6 -21 -21 -47 -34 -73 -36 -93 -50 -93
-69 0 -26 45 -34 76 -13 52 34 231 34 364 0 14 -3 64 -9 113 -12 71 -5 95 -3
127 12 22 10 40 22 40 26 0 18 -33 39 -52 33 -45 -14 -73 -10 -128 18 -46 23
-64 39 -84 75 -14 25 -26 58 -26 74 0 15 -3 30 -7 32 -5 3 -7 171 -5 374 3
319 8 516 25 845 3 59 0 81 -13 98 -15 20 -17 20 -32 3z"/>
<path d="M4857 4433 c-4 -3 -7 -21 -7 -39 0 -31 2 -32 50 -39 44 -6 81 -21
183 -77 15 -8 50 -36 78 -62 27 -25 52 -46 55 -46 7 0 64 -60 64 -66 0 -3 5
-10 10 -17 55 -65 115 -147 131 -181 11 -23 31 -54 44 -70 22 -28 26 -29 49
-17 26 15 26 13 -13 101 -13 27 -5 124 13 185 26 82 27 151 4 172 -25 22 -48
1 -48 -43 0 -45 -28 -73 -66 -66 -16 3 -31 8 -34 11 -3 3 -21 18 -40 32 -19
15 -45 35 -57 45 -51 45 -64 54 -95 70 -18 9 -35 20 -38 23 -8 10 -123 58
-165 70 -61 16 -111 22 -118 14z"/>
<path d="M4569 4419 c-8 -5 -23 -9 -35 -9 -11 0 -39 -9 -62 -20 -22 -11 -46
-20 -51 -20 -6 0 -14 -6 -18 -12 -4 -7 -30 -24 -56 -38 -49 -25 -167 -140
-167 -163 0 -7 -13 -38 -29 -69 -16 -31 -27 -59 -24 -62 3 -3 2 -13 -2 -23
-32 -73 0 -88 114 -54 19 6 37 8 41 6 13 -8 45 40 57 87 30 114 115 208 256
281 39 21 42 25 42 62 0 35 -3 40 -26 42 -14 1 -32 -3 -40 -8z"/>
<path d="M4247 3833 c-5 -4 -47 -8 -123 -12 -35 -2 28 -169 88 -235 10 -11 18
-23 18 -27 0 -14 177 -125 193 -121 4 1 7 -3 7 -8 0 -5 17 -10 39 -10 21 0 56
-6 77 -14 22 -7 61 -16 87 -20 27 -4 59 -9 70 -12 27 -5 71 -12 157 -25 82
-11 98 -14 135 -23 17 -4 59 -14 94 -22 61 -14 118 -37 219 -87 57 -28 161
-131 190 -187 12 -25 27 -52 32 -60 13 -22 23 -54 21 -64 -1 -5 1 -16 5 -25
17 -38 24 -191 12 -261 -16 -94 -54 -190 -103 -263 -44 -65 -141 -164 -168
-173 -12 -3 -31 -14 -42 -24 -41 -38 -162 -73 -242 -71 -12 0 -25 -4 -28 -9
-4 -6 -11 -7 -17 -4 -6 4 -34 9 -62 11 -187 14 -332 81 -439 204 -41 47 -46
57 -45 102 0 45 4 54 44 95 33 34 41 48 33 58 -13 15 -38 11 -94 -16 -39 -19
-97 -31 -155 -32 -23 -1 -157 23 -220 38 -86 21 -200 4 -214 -31 -7 -21 8 -27
62 -25 77 3 90 1 108 -17 9 -10 23 -18 31 -19 14 -2 56 -29 123 -79 15 -11 47
-33 71 -50 24 -16 51 -38 61 -47 65 -64 277 -198 313 -198 8 0 15 -4 15 -9 0
-11 59 -33 70 -26 5 3 11 1 15 -5 3 -5 16 -10 29 -10 12 0 26 -3 30 -7 4 -4
17 -8 29 -9 12 -1 31 -4 42 -7 76 -18 272 -26 294 -13 5 3 26 8 46 12 58 9 68
11 100 25 17 6 35 13 40 14 47 11 205 98 213 118 2 4 8 7 14 7 6 0 21 11 33
24 12 13 31 29 42 35 12 6 37 35 57 65 20 30 41 58 46 61 14 9 78 145 91 195
6 25 13 65 15 90 2 25 7 60 10 77 4 18 3 41 -1 50 -4 10 -8 34 -7 53 0 62 -67
233 -121 305 -42 57 -132 140 -172 160 -22 11 -42 23 -45 26 -3 4 -16 10 -30
14 -14 4 -33 14 -43 23 -9 8 -20 12 -24 9 -3 -4 -11 -3 -17 2 -16 13 -84 32
-136 38 -25 3 -53 9 -63 15 -9 5 -22 6 -27 3 -6 -4 -12 0 -15 7 -4 11 -40 15
-157 16 -84 2 -157 7 -163 12 -7 6 -14 7 -18 4 -10 -11 -152 29 -225 64 -41
19 -90 51 -110 71 -49 47 -105 140 -140 231 -9 23 -42 37 -55 23z"/>
<path d="M3873 6434 c-37 -31 -38 -33 -23 -60 18 -32 57 -56 128 -77 36 -10
54 -12 59 -4 8 13 -48 59 -65 52 -14 -5 -62 22 -62 35 0 17 40 20 69 6 17 -9
51 -16 76 -16 38 0 46 3 43 16 -4 24 -101 75 -148 78 -33 3 -46 -2 -77 -30z"/>
<path d="M4361 6413 c-12 -14 -18 -30 -15 -35 4 -5 34 -8 68 -6 60 3 61 2 64
-24 4 -37 27 -55 48 -38 32 27 36 49 15 79 -21 28 -52 41 -123 47 -30 3 -41
-2 -57 -23z"/>
<path d="M4427 6349 c-9 -6 -21 -8 -26 -5 -16 10 -41 -5 -41 -24 0 -22 7 -27
44 -34 29 -5 76 8 76 21 0 5 -8 18 -18 30 -13 17 -21 20 -35 12z"/>
<path d="M4070 6326 c0 -36 111 -69 118 -35 5 28 -26 49 -74 49 -31 0 -44 -4
-44 -14z"/>
<path d="M4210 6322 c0 -30 24 -44 77 -45 47 -1 48 0 48 29 0 29 -1 29 -62 32
-57 3 -63 1 -63 -16z"/>
<path d="M4734 6318 c-27 -13 -59 -77 -45 -91 5 -5 17 -7 25 -4 9 4 18 6 21 7
3 0 18 6 35 15 38 20 36 20 37 -17 1 -72 0 -70 31 -54 43 22 60 48 60 89 0 26
-6 40 -19 48 -10 5 -19 6 -19 2 0 -4 -5 -2 -12 5 -14 14 -85 15 -114 0z"/>
<path d="M4442 6263 c-30 -6 -38 -28 -21 -59 11 -21 18 -24 43 -18 17 4 34 11
38 17 7 12 -18 68 -30 66 -4 -1 -17 -4 -30 -6z"/>
<path d="M4176 6244 c-9 -24 -8 -31 10 -48 22 -23 74 -21 74 2 0 43 -70 82
-84 46z"/>
<path d="M4279 6250 c-8 -6 -8 -15 2 -36 12 -25 21 -29 59 -31 53 -3 66 12 39
46 -20 26 -74 37 -100 21z"/>
<path d="M4770 6223 c-8 -3 -22 -7 -30 -9 -8 -3 -15 -4 -15 -3 0 1 -10 -3 -21
-9 -13 -7 -21 -20 -20 -34 1 -21 6 -23 45 -21 53 3 63 11 59 50 -2 21 -8 29
-18 26z"/>
<path d="M5055 6190 c-22 -9 -73 -60 -61 -60 5 0 3 -7 -4 -15 -10 -12 -10 -19
-2 -27 13 -13 69 7 90 32 12 13 13 12 7 -10 -11 -46 -9 -91 5 -100 17 -11 60
18 90 60 l21 29 -20 40 c-26 50 -77 72 -126 51z"/>
<path d="M4582 6172 c-13 -4 -23 -10 -23 -14 1 -5 1 -13 1 -19 0 -6 17 -9 43
-7 34 2 42 7 42 23 0 22 -24 28 -63 17z"/>
<path d="M4440 6150 c-13 -24 10 -42 47 -36 15 2 31 5 36 5 4 1 7 10 7 21 0
11 -3 20 -7 21 -53 8 -74 5 -83 -11z"/>
<path d="M4118 6149 c-27 -15 -21 -43 13 -63 28 -16 33 -17 46 -3 12 12 13 19
2 38 -20 38 -33 45 -61 28z"/>
<path d="M4597 6084 c-28 -15 -31 -22 -19 -41 8 -13 64 -13 73 0 9 13 -1 45
-15 50 -6 3 -24 -2 -39 -9z"/>
<path d="M4495 6070 c-23 -4 -29 -10 -27 -25 5 -28 20 -34 55 -24 37 10 39 12
31 32 -7 20 -22 25 -59 17z"/>
<path d="M5001 6057 c-57 -29 -41 -91 21 -78 30 6 33 10 36 49 3 46 -10 54
-57 29z"/>
<path d="M4387 6045 c-21 -15 -22 -54 -1 -62 26 -10 66 14 62 39 -4 27 -38 40
-61 23z"/>
<path d="M5311 6049 c-28 -11 -44 -30 -71 -82 -16 -34 -17 -39 -3 -44 17 -7
71 22 90 46 6 9 15 13 19 9 4 -4 2 -14 -5 -22 -6 -8 -11 -18 -10 -22 3 -20 -2
-34 -12 -34 -5 0 -7 5 -3 11 9 15 -42 4 -72 -16 -16 -10 -19 -21 -16 -48 4
-34 6 -36 37 -33 38 4 58 14 50 27 -9 13 9 11 23 -3 9 -9 20 -5 49 18 33 27
42 39 63 84 4 8 0 34 -8 57 -16 41 -22 45 -92 58 -8 2 -26 -1 -39 -6z"/>
<path d="M4712 6019 c-29 -11 -35 -37 -11 -50 15 -7 24 -8 31 -1 7 7 19 7 35
1 20 -7 25 -5 32 14 5 12 6 28 4 35 -6 13 -56 14 -91 1z"/>
<path d="M4827 6023 c-9 -9 -9 -43 1 -44 24 -3 48 -7 57 -10 18 -6 55 21 55
41 0 17 -7 20 -53 20 -30 0 -57 -3 -60 -7z"/>
<path d="M4316 5998 c-18 -29 -16 -56 8 -90 15 -23 26 -28 59 -28 45 0 66 19
67 62 0 36 -11 40 -48 18 -26 -16 -32 -17 -32 -5 0 20 -22 65 -31 65 -5 0 -15
-10 -23 -22z"/>
<path d="M4602 6008 c-16 -16 -15 -65 2 -71 22 -9 61 17 62 41 2 33 -41 53
-64 30z"/>
<path d="M5000 5943 c-31 -12 -37 -23 -31 -56 6 -30 9 -32 44 -29 20 2 37 -1
37 -7 0 -5 -15 -11 -32 -13 -28 -2 -33 -7 -33 -28 0 -23 4 -25 40 -24 22 1 45
2 52 3 13 1 9 36 -5 55 -5 6 -6 19 -3 30 4 10 5 31 3 47 -4 24 -9 29 -31 28
-14 0 -33 -3 -41 -6z"/>
<path d="M4843 5918 c-14 -16 -18 -16 -25 -5 -6 11 -20 13 -55 9 -61 -6 -73
-15 -64 -50 7 -24 12 -27 47 -26 71 2 76 4 81 23 5 19 5 19 24 0 21 -21 69
-25 87 -7 16 16 15 55 0 65 -24 15 -78 9 -95 -9z"/>
<path d="M4629 5896 c-29 -14 -40 -83 -14 -92 28 -11 65 23 65 60 0 39 -17 50
-51 32z"/>
<path d="M5167 5864 c-5 -6 -32 -12 -55 -13 -7 -1 -11 -10 -10 -23 6 -39 16
-48 43 -38 14 5 25 7 25 4 0 -4 6 -1 14 5 17 14 18 58 1 65 -7 2 -15 2 -18 0z"/>
<path d="M4547 5848 c-9 -7 -23 -29 -31 -49 -13 -32 -13 -39 0 -57 16 -23 68
-52 93 -52 28 0 59 29 66 61 11 51 -9 58 -50 19 -19 -19 -36 -30 -36 -24 -1 5
-3 27 -4 49 -4 61 -4 65 -13 65 -5 0 -16 -6 -25 -12z"/>
<path d="M4855 5825 c-3 -8 -7 -21 -9 -29 -8 -24 19 -37 62 -30 40 6 56 28 44
62 -6 18 -91 16 -97 -3z"/>
<path d="M5553 5830 c-47 -19 -95 -143 -52 -131 8 2 19 4 24 5 6 1 20 7 32 14
12 7 33 12 47 12 14 0 26 5 26 10 0 6 5 10 10 10 6 0 5 -11 -4 -27 -17 -34
-31 -113 -19 -113 4 1 33 13 63 28 l55 27 3 51 c3 46 0 54 -28 80 -16 16 -33
29 -38 29 -4 0 -11 3 -17 6 -16 9 -78 9 -102 -1z"/>
<path d="M5118 5738 c-9 -7 -16 -24 -15 -38 2 -20 8 -26 31 -28 48 -6 76 6 76
31 0 13 -5 28 -12 35 -16 16 -60 15 -80 0z"/>
<path d="M4989 5717 c-6 -10 -9 -28 -7 -40 3 -19 8 -22 48 -19 24 2 46 4 48 6
1 2 4 19 5 37 2 34 2 34 -41 34 -32 0 -46 -4 -53 -18z"/>
<path d="M4916 5722 c-3 -5 -18 -7 -34 -6 -27 2 -30 -1 -35 -35 -3 -20 -6 -43
-8 -51 -3 -12 5 -14 36 -12 22 2 50 9 61 17 25 16 37 64 22 83 -12 14 -34 16
-42 4z"/>
<path d="M4776 5680 c-38 -24 -67 -79 -55 -101 4 -9 6 -19 3 -21 -3 -3 9 -17
26 -32 31 -26 83 -35 95 -16 3 5 12 7 20 3 19 -7 77 54 73 76 -5 23 -70 15
-115 -14 -34 -22 -36 -16 -13 31 21 40 23 85 5 91 -5 1 -23 -6 -39 -17z"/>
<path d="M5541 5684 c-24 -7 -49 -12 -54 -11 -17 3 -33 -51 -20 -64 14 -14
100 -16 113 -3 12 13 23 81 13 87 -4 2 -28 -1 -52 -9z"/>
<path d="M5277 5662 c-37 -3 -38 -4 -35 -40 3 -36 4 -37 43 -37 38 0 40 2 43
34 4 41 -3 47 -51 43z"/>
<path d="M5355 5662 c-8 -8 -6 -70 3 -76 4 -2 23 -1 42 3 30 6 35 11 35 36 0
26 -4 30 -37 36 -21 3 -40 4 -43 1z"/>
<path d="M5108 5624 c-18 -39 0 -60 48 -55 51 4 54 6 54 47 0 34 0 34 -45 34
-39 0 -47 -4 -57 -26z"/>
<path d="M5815 5557 c-39 -19 -77 -89 -55 -102 4 -3 26 2 49 10 23 8 41 12 41
8 0 -3 10 1 23 9 35 23 51 11 27 -19 -11 -14 -20 -34 -20 -44 0 -10 -5 -21
-10 -24 -19 -12 9 -33 33 -27 36 9 63 30 82 66 l18 33 -29 41 c-16 23 -37 42
-46 42 -9 0 -19 4 -22 8 -7 12 -67 11 -91 -1z"/>
<path d="M5384 5540 c-17 -7 -22 -17 -22 -44 0 -31 3 -36 23 -36 41 0 55 11
55 41 0 33 -25 50 -56 39z"/>
<path d="M5250 5530 c-6 -4 -10 -25 -8 -46 3 -39 3 -39 43 -36 22 2 45 8 52
14 13 11 14 47 0 65 -9 13 -68 15 -87 3z"/>
<path d="M5145 5518 c-43 -15 -55 -27 -55 -54 0 -12 -5 -26 -11 -30 -6 -3 -10
1 -9 12 4 34 0 44 -15 44 -8 0 -15 -4 -15 -8 0 -5 -11 -14 -25 -20 -22 -10
-63 -73 -63 -97 0 -19 18 -44 51 -69 29 -23 37 -24 77 -15 49 11 75 30 96 70
10 21 11 30 1 42 -11 14 -19 12 -72 -13 -32 -16 -61 -28 -62 -26 -2 1 3 14 9
28 10 22 18 26 40 21 16 -3 35 1 48 10 12 9 28 13 35 10 19 -7 37 32 33 70 -3
36 -17 41 -63 25z"/>
<path d="M5815 5440 c-11 -5 -34 -9 -51 -9 -29 -1 -32 -4 -36 -36 -4 -34 11
-62 25 -48 4 3 25 6 47 5 35 -2 42 2 51 25 11 31 9 65 -6 69 -5 1 -19 -1 -30
-6z"/>
<path d="M5372 5426 c-14 -18 -14 -89 -1 -97 7 -4 25 -2 40 3 26 9 29 14 27
49 -1 22 -6 43 -12 46 -17 11 -46 10 -54 -1z"/>
<path d="M5482 5432 c-7 -2 -12 -23 -12 -48 l0 -44 45 0 c33 0 47 5 54 19 9
17 8 58 -2 68 -6 5 -72 10 -85 5z"/>
<path d="M5595 5418 c-2 -7 -3 -26 -2 -43 2 -27 6 -30 40 -33 21 -2 45 2 53 9
20 17 18 67 -3 72 -39 10 -84 7 -88 -5z"/>
<path d="M5996 5268 c-20 -23 -36 -48 -36 -55 0 -17 29 -29 39 -17 3 5 15 11
26 12 11 2 30 13 41 24 26 23 40 10 19 -18 -8 -10 -15 -28 -15 -39 0 -12 -5
-26 -10 -31 -8 -8 -6 -15 4 -23 11 -10 21 -5 52 23 21 19 35 38 31 42 -3 4 -2
15 3 25 12 21 -3 66 -28 85 -9 8 -34 14 -54 14 -31 0 -42 -7 -72 -42z"/>
<path d="M5806 5292 c-4 -4 -22 -7 -39 -7 -31 0 -32 -1 -32 -45 l0 -45 46 -3
47 -3 4 46 c3 44 -10 74 -26 57z"/>
<path d="M5388 5278 c-35 -9 -36 -11 -40 -61 -3 -29 -1 -56 3 -60 4 -5 21 -1
38 7 17 9 34 15 38 14 11 -4 16 93 6 102 -4 4 -24 3 -45 -2z"/>
<path d="M5480 5282 c-5 -2 -10 -24 -10 -49 0 -44 0 -45 28 -38 15 4 38 8 52
9 22 1 25 5 24 41 l0 40 -42 0 c-23 0 -46 -1 -52 -3z"/>
<path d="M5604 5282 c-5 -4 -10 -23 -9 -42 l0 -35 50 0 50 0 0 40 c0 40 0 40
-40 42 -23 1 -45 -1 -51 -5z"/>
<path d="M5278 5235 c-47 -32 -65 -63 -63 -108 2 -52 31 -79 94 -87 48 -6 52
-5 86 30 33 34 45 72 27 84 -12 7 -82 -15 -82 -26 0 -4 -7 -8 -15 -8 -8 0 -15
-7 -15 -16 0 -8 -5 -12 -11 -9 -7 5 -5 13 5 24 18 20 33 126 19 134 -5 3 -25
-5 -45 -18z"/>
<path d="M6010 5180 c-8 -5 -24 -10 -36 -10 -23 0 -50 -42 -39 -60 10 -17 87
-4 103 17 14 20 12 55 -3 60 -5 1 -17 -2 -25 -7z"/>
<path d="M5728 5146 c-7 -37 6 -52 49 -51 37 0 38 1 38 35 0 34 -1 35 -41 38
-37 3 -42 0 -46 -22z"/>
<path d="M5850 5144 c-14 -35 -13 -42 9 -49 27 -8 48 3 53 30 6 30 -1 41 -30
42 -16 1 -26 -6 -32 -23z"/>
<path d="M5963 5052 c-25 -2 -34 -9 -39 -27 -8 -33 11 -62 41 -62 21 0 27 6
36 40 12 46 6 54 -38 49z"/>
<path d="M5716 5042 c-3 -5 -3 -17 -1 -28 2 -10 4 -23 4 -27 1 -4 20 -6 44 -4
36 3 42 7 43 28 1 13 -3 27 -10 31 -15 10 -74 10 -80 0z"/>
<path d="M5833 5027 c-14 -31 -3 -47 35 -53 31 -5 32 -5 32 35 0 38 -2 41 -28
41 -20 0 -32 -7 -39 -23z"/>
<path d="M5597 5033 c-9 -16 -18 -73 -13 -81 7 -12 93 16 100 33 2 7 2 23 -1
34 -4 17 -13 21 -44 21 -21 0 -40 -3 -42 -7z"/>
<path d="M6187 5031 c-29 -6 -74 -66 -57 -76 13 -8 80 -2 80 7 0 4 5 8 10 8
14 0 13 -33 -2 -48 -7 -7 -9 -12 -5 -12 4 0 3 -9 -2 -19 -17 -31 12 -47 43
-24 28 20 40 44 41 83 1 47 -57 91 -108 81z"/>
<path d="M5508 4990 c-65 -53 -61 -137 8 -166 33 -14 38 -13 72 8 41 24 55 42
58 75 5 42 -22 39 -101 -13 l-30 -19 19 29 c27 43 36 82 23 100 -11 15 -16 13
-49 -14z"/>
<path d="M5820 4930 c-17 -42 -10 -64 23 -65 35 -2 48 14 44 55 -2 27 -7 33
-29 36 -21 2 -29 -3 -38 -26z"/>
<path d="M5944 4942 c-16 -2 -23 -12 -26 -33 -3 -16 0 -33 6 -37 33 -20 71 -5
73 30 3 27 -22 45 -53 40z"/>
<path d="M6018 4905 c-13 -29 -4 -43 31 -47 30 -4 50 25 35 50 -18 28 -52 27
-66 -3z"/>
<path d="M6121 4922 c-6 -2 -11 -19 -11 -38 0 -31 3 -34 29 -34 47 0 80 46 49
67 -14 8 -48 11 -67 5z"/>
<path d="M5919 4820 c-9 -5 -16 -21 -15 -37 1 -23 6 -29 30 -31 16 -2 32 2 37
10 12 18 11 58 0 58 -5 0 -15 2 -23 5 -7 2 -20 0 -29 -5z"/>
<path d="M5793 4801 c-15 -24 -17 -57 -4 -65 5 -4 26 0 48 7 33 10 38 16 38
42 0 27 -3 30 -35 33 -26 2 -38 -2 -47 -17z"/>
<path d="M6010 4801 c-16 -32 -12 -50 15 -57 47 -12 77 44 36 66 -28 15 -39
13 -51 -9z"/>
<path d="M6121 4811 c-19 -5 -24 -14 -26 -43 -3 -33 0 -36 28 -42 37 -8 48 2
51 44 3 36 -16 50 -53 41z"/>
<path d="M5707 4768 c-28 -27 -34 -40 -32 -66 1 -17 8 -38 14 -46 17 -20 69
-37 76 -25 4 5 10 7 15 4 11 -7 70 52 70 70 0 27 -32 22 -102 -16 -24 -12 -23
2 2 50 16 33 17 41 6 50 -11 9 -22 4 -49 -21z"/>
<path d="M6305 4724 c-22 -22 -15 -49 13 -49 27 0 42 -20 35 -46 -6 -23 -23
-25 -23 -4 0 9 -10 19 -22 24 -25 9 -47 -10 -48 -40 0 -21 47 -34 66 -18 11 9
14 8 14 -4 0 -21 23 -27 51 -13 17 8 24 20 25 46 2 38 -20 100 -39 112 -20 13
-55 9 -72 -8z"/>
<path d="M6001 4717 c-6 -6 -11 -24 -11 -39 0 -21 5 -28 20 -28 11 0 23 -1 28
-1 14 -3 32 45 21 57 -14 17 -46 23 -58 11z"/>
<path d="M6084 4685 c-10 -24 2 -42 33 -48 35 -7 47 4 39 37 -5 21 -12 26 -37
26 -17 0 -32 -6 -35 -15z"/>
<path d="M6186 4683 c-3 -3 -6 -21 -6 -39 0 -26 5 -33 25 -36 30 -6 63 33 42
50 -23 18 -54 31 -61 25z"/>
<path d="M5979 4592 c-13 -9 -19 -23 -17 -40 3 -26 11 -29 57 -23 12 1 35 60
27 68 -12 12 -46 10 -67 -5z"/>
<path d="M6070 4580 c-13 -24 8 -48 45 -52 27 -3 30 0 30 27 0 25 -5 30 -33
36 -25 5 -35 3 -42 -11z"/>
<path d="M5891 4573 c-33 -27 -34 -62 -5 -100 21 -28 32 -33 65 -33 33 0 41 4
49 26 6 14 8 30 4 35 -7 13 -48 11 -61 -2 -21 -21 -34 0 -18 31 29 56 10 79
-34 43z"/>
<path d="M6177 4565 c-25 -18 -14 -51 20 -60 46 -11 60 34 18 61 -17 11 -23
10 -38 -1z"/>
<path d="M6174 4482 c-20 -12 -13 -64 10 -84 33 -28 47 -23 44 17 -2 38 -36
79 -54 67z"/>
<path d="M6254 4432 c-20 -14 -7 -73 20 -99 33 -30 52 -25 50 13 -1 16 -3 34
-3 40 -1 16 -56 53 -67 46z"/>
<path d="M6074 4369 c-42 -15 -40 -58 2 -78 33 -14 29 -16 54 19 17 24 19 34
11 44 -16 19 -42 25 -67 15z"/>
<path d="M6343 4344 c-7 -20 20 -106 47 -144 25 -36 33 -67 19 -76 -15 -9 -47
31 -56 69 -3 15 -20 43 -37 61 -25 28 -35 33 -49 25 -14 -9 -15 -14 -5 -32 7
-12 11 -28 9 -35 -1 -8 3 -20 10 -28 6 -8 9 -14 6 -14 -7 0 12 -44 38 -86 25
-42 89 -78 114 -65 68 37 60 144 -19 261 -50 74 -67 88 -77 64z"/>
<path d="M1562 3923 c-19 -7 -42 -58 -42 -92 0 -17 7 -50 17 -73 21 -56 95
-168 109 -168 34 0 17 72 -36 158 -31 50 -33 72 -5 72 12 0 37 -31 40 -50 5
-29 23 -60 49 -82 67 -60 67 -3 0 137 -42 87 -83 118 -132 98z"/>
<path d="M1884 3657 c-2 -7 -6 -26 -7 -42 -2 -27 1 -30 28 -33 17 -2 38 3 48
10 17 12 17 15 2 46 -12 23 -23 32 -41 32 -14 0 -27 -6 -30 -13z"/>
<path d="M1689 3638 c-1 -2 -2 -20 -3 -42 -2 -30 3 -44 23 -62 14 -13 29 -24
33 -24 11 0 24 33 23 57 -3 26 -69 88 -76 71z"/>
<path d="M1787 3563 c-4 -3 -7 -23 -7 -43 0 -30 5 -39 26 -49 34 -15 44 -7 44
34 0 40 -42 79 -63 58z"/>
<path d="M2017 3492 c-27 -30 -22 -54 11 -49 15 3 35 8 45 12 16 7 18 4 12
-28 -8 -41 4 -52 33 -31 28 19 28 54 1 88 -25 32 -77 36 -102 8z"/>
<path d="M1687 3493 c-4 -7 -3 -41 2 -64 2 -9 48 -17 59 -10 4 3 11 14 15 23
11 31 -60 78 -76 51z"/>
<path d="M1784 3435 c-11 -27 4 -47 33 -43 31 4 40 34 13 48 -26 14 -40 12
-46 -5z"/>
<path d="M1867 3424 c-17 -17 -5 -43 25 -53 37 -13 51 -4 46 30 -2 18 -10 25
-33 27 -17 2 -34 0 -38 -4z"/>
<path d="M1976 3409 c-20 -29 -10 -49 25 -49 30 0 55 30 45 56 -8 21 -53 17
-70 -7z"/>
<path d="M1607 3372 c-9 -10 -17 -28 -17 -40 0 -92 96 -159 125 -88 17 39 12
46 -32 46 -32 0 -35 2 -28 23 4 12 8 33 9 47 1 32 -33 39 -57 12z"/>
<path d="M1689 3365 c-1 -8 -2 -23 -3 -32 -2 -28 50 -30 59 -3 4 12 1 27 -5
35 -16 19 -50 19 -51 0z"/>
<path d="M1771 3343 c-17 -32 -16 -35 9 -48 32 -18 35 -18 54 1 23 22 20 31
-14 49 -36 19 -37 19 -49 -2z"/>
<path d="M2199 3308 c-37 -37 -50 -68 -29 -68 6 0 10 -4 10 -10 0 -5 -6 -10
-13 -10 -18 0 -41 -44 -34 -64 4 -9 17 -14 35 -12 33 2 65 23 57 36 -3 5 -1
11 4 15 17 10 0 37 -20 32 -30 -8 -22 9 11 23 17 7 35 20 39 29 21 36 22 -2 2
-50 -12 -29 -19 -55 -16 -58 7 -6 67 27 77 43 16 23 8 85 -13 105 -38 36 -68
33 -110 -11z"/>
<path d="M1871 3322 c-21 -7 -12 -48 13 -60 29 -13 47 2 41 33 -2 11 -4 22 -4
25 -1 6 -33 8 -50 2z"/>
<path d="M1980 3313 c-47 -19 -41 -77 7 -71 32 4 55 54 32 69 -16 10 -18 10
-39 2z"/>
<path d="M1949 3213 c0 -4 -3 -20 -5 -35 -3 -16 -1 -28 3 -29 4 0 16 -2 25 -4
23 -4 39 17 35 46 -3 17 -11 25 -30 27 -15 2 -27 0 -28 -5z"/>
<path d="M2040 3193 c0 -11 -5 -24 -11 -30 -12 -12 -6 -17 33 -27 32 -7 55 12
53 46 -1 19 -8 24 -38 26 -31 3 -37 0 -37 -15z"/>
<path d="M2468 3155 c-2 -3 -13 -6 -24 -8 -10 -1 -26 -7 -35 -12 -21 -13 -62
-82 -55 -93 8 -13 51 -6 78 12 30 21 45 20 26 -1 -18 -22 -18 -85 0 -91 7 -2
28 12 47 32 33 36 40 72 21 116 -8 17 -51 51 -58 45z"/>
<path d="M1760 3086 c-42 -38 -66 -96 -40 -96 6 0 10 -6 10 -14 0 -23 41 -46
82 -46 29 0 41 6 56 28 10 15 17 33 15 40 -6 16 -65 16 -81 0 -19 -19 -36 11
-18 32 39 45 18 94 -24 56z"/>
<path d="M1834 3093 c-17 -18 -18 -53 -1 -54 6 -1 19 -2 27 -3 31 -3 51 15 48
42 -2 21 -9 26 -31 28 -16 0 -35 -5 -43 -13z"/>
<path d="M1952 3099 c-32 -12 -30 -55 3 -61 24 -5 55 17 55 38 0 18 -35 31
-58 23z"/>
<path d="M2152 3096 c-39 -18 -42 -76 -4 -76 27 0 42 14 47 42 6 33 -13 47
-43 34z"/>
<path d="M2032 3083 c-4 -10 -7 -24 -6 -30 1 -7 2 -17 3 -22 0 -6 13 -9 29 -8
20 2 28 8 30 25 6 43 -38 70 -56 35z"/>
<path d="M2396 3022 c-3 -5 -19 -12 -36 -15 -21 -5 -31 -14 -36 -32 -9 -35 9
-52 48 -47 29 3 35 9 45 40 9 29 9 40 -1 50 -8 9 -16 10 -20 4z"/>
<path d="M2023 2993 c-8 -2 -13 -22 -13 -44 0 -34 3 -39 23 -39 33 0 49 14 53
46 4 38 -23 54 -63 37z"/>
<path d="M2131 2979 c-20 -22 -29 -58 -13 -60 4 0 15 -2 24 -4 24 -4 40 19 36
51 -4 36 -21 40 -47 13z"/>
<path d="M2230 2990 c-28 -7 -40 -47 -18 -61 30 -19 67 -10 83 21 14 27 14 31
0 35 -33 11 -41 11 -65 5z"/>
<path d="M2635 2919 c-38 -18 -81 -79 -67 -94 12 -12 50 -3 91 20 44 26 63 27
44 3 -29 -36 -35 -128 -9 -128 20 0 73 46 88 78 21 42 1 100 -43 123 -43 23
-54 23 -104 -2z"/>
<path d="M2206 2868 c-23 -13 -21 -68 2 -69 68 -5 67 -5 69 28 2 43 -32 63
-71 41z"/>
<path d="M2028 2862 c-30 -4 -58 -35 -58 -64 0 -13 8 -18 29 -18 17 0 33 5 36
10 4 6 10 8 15 5 10 -6 23 12 27 36 3 23 -16 35 -49 31z"/>
<path d="M2102 2858 c-16 -16 -15 -45 1 -55 36 -23 67 -5 67 38 0 25 -4 29
-28 29 -15 0 -33 -5 -40 -12z"/>
<path d="M1924 2832 c-23 -16 -64 -81 -64 -101 0 -13 9 -35 20 -51 16 -22 26
-27 54 -25 19 2 44 6 56 10 26 8 66 83 51 98 -13 13 -70 -10 -93 -38 -15 -19
-17 -19 -23 -2 -4 9 -3 23 3 30 14 18 25 74 15 80 -5 3 -13 3 -19 -1z"/>
<path d="M2609 2803 c-20 -8 -42 -26 -48 -39 -28 -62 1 -93 59 -65 32 15 35
20 38 63 1 26 -1 49 -5 51 -5 2 -24 -3 -44 -10z"/>
<path d="M2436 2764 c-3 -8 -6 -31 -6 -50 0 -34 0 -34 42 -31 38 3 43 7 49 34
8 41 -2 55 -44 59 -25 3 -36 0 -41 -12z"/>
<path d="M2191 2761 c-17 -11 -23 -37 -16 -68 5 -20 11 -22 53 -20 l47 2 1 48
2 47 -37 0 c-20 0 -42 -4 -50 -9z"/>
<path d="M2317 2764 c-11 -11 -8 -84 3 -85 6 0 24 -1 40 -1 17 0 35 1 40 1 14
1 12 67 -2 78 -16 12 -71 16 -81 7z"/>
<path d="M2888 2679 c-36 -14 -74 -74 -59 -93 7 -8 17 -13 24 -12 26 6 73 28
90 43 26 24 33 7 13 -32 -10 -18 -19 -47 -21 -64 -4 -45 29 -41 77 9 48 51 51
89 9 131 -32 31 -79 37 -133 18z"/>
<path d="M2565 2620 c-28 -30 -10 -72 33 -81 25 -5 34 -3 40 10 10 20 9 62 -1
79 -12 19 -52 14 -72 -8z"/>
<path d="M2332 2619 c-17 -6 -22 -16 -22 -43 l0 -35 48 2 c47 2 47 2 47 36 0
28 -4 36 -25 41 -14 4 -36 3 -48 -1z"/>
<path d="M2442 2621 c-8 -5 -12 -22 -10 -46 3 -39 3 -39 47 -38 24 0 47 6 51
13 8 13 4 55 -6 72 -7 10 -65 10 -82 -1z"/>
<path d="M2174 2605 c-31 -23 -36 -110 -5 -91 6 4 28 9 47 11 20 2 41 8 46 13
16 16 20 72 5 74 -42 5 -81 3 -93 -7z"/>
<path d="M2095 2588 c-42 -24 -72 -64 -70 -94 2 -16 3 -35 4 -42 2 -19 62 -52
95 -52 51 0 94 22 113 57 16 30 16 35 3 43 -8 6 -22 7 -30 4 -8 -4 -30 -10
-48 -14 -18 -4 -38 -13 -46 -19 -24 -20 -23 -1 2 49 32 66 23 94 -23 68z"/>
<path d="M2867 2554 c-15 -8 -31 -12 -36 -10 -5 3 -15 -4 -23 -17 -12 -19 -14
-36 -9 -78 0 -6 10 -8 21 -4 11 3 32 9 47 11 39 7 46 18 48 69 2 49 -4 53 -48
29z"/>
<path d="M2589 2509 c-22 -8 -26 -15 -24 -41 3 -35 21 -50 50 -42 26 8 24 6
28 35 5 25 -8 60 -21 58 -4 0 -19 -5 -33 -10z"/>
<path d="M2669 2513 c-6 -32 -6 -73 -1 -74 4 0 24 -2 44 -4 42 -5 55 7 54 50
-1 29 -3 30 -48 33 -27 2 -49 -1 -49 -5z"/>
<path d="M2437 2503 c-4 -3 -7 -26 -7 -51 l0 -44 46 5 c59 5 65 15 55 90 -1 9
-85 10 -94 0z"/>
<path d="M3108 2441 c-25 -23 -30 -32 -24 -55 6 -24 9 -25 29 -14 12 7 24 13
27 14 12 2 46 16 61 24 26 14 29 1 8 -33 -22 -37 -26 -97 -5 -97 15 0 85 63
87 79 1 6 2 17 3 24 4 22 -24 68 -47 76 -12 5 -41 9 -65 9 -33 1 -50 -5 -74
-27z"/>
<path d="M2859 2406 c-3 -3 -16 -7 -29 -9 -25 -4 -40 -31 -32 -59 3 -14 14
-17 51 -15 l46 2 0 40 c0 28 -5 41 -15 43 -9 1 -18 0 -21 -2z"/>
<path d="M2685 2376 c-14 -11 -15 -31 -3 -52 7 -11 59 -11 78 1 9 6 6 41 -5
53 -8 9 -57 8 -70 -2z"/>
<path d="M2471 2372 c-33 -3 -44 -8 -48 -23 -3 -10 -9 -19 -14 -19 -7 0 -7
-13 0 -64 0 -5 7 -4 14 2 7 6 32 14 55 18 44 7 62 25 56 58 -4 27 -14 31 -63
28z"/>
<path d="M2600 2371 c-29 -5 -35 -10 -35 -31 -1 -31 10 -39 44 -34 43 7 51 12
51 32 0 28 -20 39 -60 33z"/>
<path d="M3115 2352 c-47 -19 -64 -39 -59 -66 6 -31 20 -39 57 -32 42 8 54 21
57 61 4 62 6 61 -55 37z"/>
<path d="M2342 2339 c-60 -31 -72 -48 -72 -99 0 -42 4 -51 34 -74 19 -14 53
-30 77 -35 41 -9 46 -8 85 25 42 34 66 87 48 104 -14 13 -102 -15 -129 -40
-33 -31 -43 -18 -20 28 20 41 30 99 18 104 -5 2 -23 -4 -41 -13z"/>
<path d="M2934 2305 c-21 -15 -15 -67 8 -71 10 -1 20 2 24 7 3 5 16 6 30 3 24
-6 26 -3 26 36 0 11 0 24 -1 28 -2 13 -69 10 -87 -3z"/>
<path d="M2806 2284 c-25 -25 0 -59 45 -60 45 -2 59 10 50 44 -6 22 -14 28
-43 30 -23 2 -41 -3 -52 -14z"/>
<path d="M3397 2282 c-29 -6 -57 -39 -57 -66 0 -37 13 -38 51 -6 19 16 37 29
40 30 3 0 6 -25 5 -56 -1 -30 3 -58 8 -61 5 -4 20 7 33 23 54 68 4 153 -80
136z"/>
<path d="M3088 2199 c-10 -5 -18 -21 -18 -34 0 -23 4 -25 46 -25 45 0 45 0 42
33 -2 26 -8 32 -28 34 -14 2 -33 -2 -42 -8z"/>
<path d="M2970 2185 c-51 -17 -49 -49 3 -53 57 -5 89 30 50 54 -13 8 -28 8
-53 -1z"/>
<path d="M2851 2171 c-34 -9 -48 -35 -32 -55 7 -9 17 -13 22 -10 5 3 22 8 36
10 35 6 44 22 30 46 -12 19 -18 20 -56 9z"/>
<path d="M3362 2164 c-17 -12 -22 -24 -20 -47 2 -26 7 -32 28 -32 42 -1 67 54
38 83 -15 15 -19 15 -46 -4z"/>
<path d="M2720 2151 c-20 -5 -26 -14 -28 -45 -5 -63 1 -70 48 -46 38 19 41 24
38 58 -3 39 -14 46 -58 33z"/>
<path d="M3267 2133 c-4 -3 -19 -7 -34 -9 -16 -1 -31 -2 -35 -3 -5 -1 -8 -14
-8 -30 0 -38 4 -39 65 -32 46 6 50 8 53 35 4 33 -22 58 -41 39z"/>
<path d="M2606 2096 c-20 -18 -37 -38 -37 -45 -10 -92 5 -127 61 -136 69 -12
97 1 125 56 27 52 32 79 15 79 -21 0 -70 -31 -80 -50 -20 -37 -27 -20 -22 55
5 89 -5 95 -62 41z"/>
<path d="M3073 2103 c-3 -6 -3 -22 -1 -35 3 -20 9 -23 43 -23 22 -1 45 3 51 7
11 8 7 57 -5 59 -46 5 -84 2 -88 -8z"/>
<path d="M2944 2093 c-8 -12 -8 -25 0 -45 8 -22 15 -27 31 -22 11 4 29 7 40 8
16 1 20 8 20 36 0 34 -1 35 -40 38 -29 2 -43 -2 -51 -15z"/>
<path d="M3588 2089 c-21 -12 -24 -64 -5 -72 7 -3 21 1 32 9 26 19 35 18 35
-5 0 -54 28 -67 54 -26 14 20 14 29 5 48 -28 51 -79 71 -121 46z"/>
<path d="M3378 2035 c-16 -9 -25 -21 -23 -32 2 -10 4 -21 4 -24 2 -12 33 -20
52 -14 22 7 25 43 7 68 -12 14 -16 14 -40 2z"/>
<path d="M3218 1992 c-30 -22 -5 -42 48 -40 47 1 68 16 58 41 -7 19 -77 18
-106 -1z"/>
<path d="M3081 1987 c-14 -14 -14 -44 -1 -49 6 -2 31 -1 56 1 46 3 67 22 47
42 -14 14 -90 18 -102 6z"/>
<path d="M3588 1989 c-10 -5 -18 -21 -18 -34 0 -19 5 -25 23 -25 32 0 60 23
55 46 -4 22 -35 29 -60 13z"/>
<path d="M2963 1983 c-7 -2 -13 -14 -13 -24 0 -19 -2 -19 -22 -5 -21 15 -24
13 -63 -27 -29 -29 -42 -50 -40 -67 4 -67 30 -88 102 -85 47 2 70 17 86 55 15
36 16 49 7 55 -11 7 -58 -19 -75 -41 -10 -14 -17 -16 -25 -8 -8 8 -9 14 -1 18
6 4 11 18 11 32 0 25 9 31 26 14 6 -6 19 -5 36 4 15 8 29 12 32 9 9 -9 29 45
23 61 -6 16 -56 21 -84 9z"/>
<path d="M3491 1961 c-49 -13 -32 -67 18 -56 27 6 32 11 29 33 -3 29 -12 33
-47 23z"/>
<path d="M3393 1937 c-13 -5 -23 -19 -23 -29 0 -15 6 -19 28 -17 35 4 52 17
46 34 -8 19 -26 24 -51 12z"/>
<path d="M3234 1917 c-17 -10 -18 -46 -1 -53 24 -9 92 22 92 42 0 15 -7 19
-38 19 -21 0 -45 -4 -53 -8z"/>
<path d="M3622 1894 c-24 -16 -30 -58 -10 -70 20 -13 70 -10 76 4 5 15 -23 82
-36 82 -4 0 -18 -7 -30 -16z"/>
<path d="M3833 1894 c-3 -8 -1 -26 5 -40 13 -28 52 -33 73 -8 11 14 10 20 -14
40 -32 28 -55 31 -64 8z"/>
<path d="M3512 1858 c-34 -17 -24 -42 18 -43 31 0 35 3 38 28 4 30 -14 35 -56
15z"/>
<path d="M3398 1843 c-20 -3 -28 -10 -28 -24 0 -17 5 -19 42 -15 45 6 64 18
54 35 -7 11 -17 12 -68 4z"/>
<path d="M3242 1818 c-14 -14 -16 -54 -2 -63 5 -3 30 4 55 15 59 27 59 54 -1
57 -22 2 -46 -3 -52 -9z"/>
<path d="M3145 1765 c-41 -42 -44 -63 -12 -93 33 -31 126 -35 157 -7 34 30 55
76 40 85 -14 9 -88 -21 -100 -40 -11 -19 -31 -2 -22 18 4 9 7 24 6 32 -1 8 -2
21 -3 28 -2 22 -30 13 -66 -23z"/>
<path d="M3511 1787 c-5 -5 -2 -21 6 -38 13 -26 20 -30 51 -27 38 3 50 26 30
58 -12 19 -70 24 -87 7z"/>
<path d="M3627 1794 c-3 -4 0 -19 8 -35 13 -24 21 -28 56 -27 45 0 57 15 39
47 -8 16 -20 21 -54 21 -23 0 -45 -3 -49 -6z"/>
<path d="M3760 1770 c0 -16 3 -30 8 -31 63 -7 74 -6 79 7 8 22 -26 54 -59 54
-24 0 -28 -4 -28 -30z"/>
<path d="M3598 1699 c-10 -6 -18 -7 -18 -4 0 3 -9 1 -19 -5 -21 -11 -22 -30
-2 -53 9 -12 19 -14 37 -7 14 6 28 9 32 9 23 -4 33 3 30 22 -4 30 -38 51 -60
38z"/>
<path d="M3683 1694 c-2 -7 -3 -21 -1 -31 3 -15 13 -18 63 -18 53 1 60 3 63
22 2 13 -4 25 -15 31 -27 14 -104 11 -110 -4z"/>
<path d="M3833 1692 c-3 -7 2 -21 12 -32 13 -14 25 -17 53 -13 53 8 58 18 20
41 -37 23 -77 25 -85 4z"/>
<path d="M3980 1690 c0 -32 22 -50 61 -50 46 0 83 -27 69 -50 -8 -12 -16 -12
-58 3 -40 15 -79 25 -111 29 -76 9 -4 -59 94 -89 68 -21 145 15 145 69 0 22
-54 62 -105 76 -72 20 -95 23 -95 12z"/>
<path d="M3485 1656 c-32 -34 -28 -52 18 -83 74 -51 198 -31 168 26 -13 24
-22 25 -73 7 -42 -15 -52 -9 -63 36 -9 35 -25 39 -50 14z"/>
<path d="M1783 6506 c-43 -22 -82 -64 -88 -94 -2 -9 -4 -17 -5 -17 -1 0 -3
-13 -4 -28 -6 -62 31 -123 111 -185 35 -28 51 -33 100 -35 41 -1 67 4 90 18
37 22 68 88 53 115 -5 10 -7 27 -5 39 2 14 -2 24 -11 28 -23 8 -32 -12 -28
-61 3 -35 -1 -47 -21 -66 -20 -19 -30 -21 -62 -15 -69 13 -166 113 -179 184
-8 45 60 100 108 88 37 -10 54 11 35 41 -11 17 -45 13 -94 -12z"/>
<path d="M6219 6488 c-19 -11 -36 -24 -39 -27 -12 -16 -71 -50 -150 -86 -47
-21 -120 -61 -163 -88 -69 -44 -81 -48 -103 -38 -20 9 -26 8 -30 -4 -7 -16 -2
-21 72 -82 37 -31 54 -39 62 -31 8 8 8 17 1 31 -13 23 1 56 33 76 20 12 25 10
60 -28 21 -22 50 -48 64 -58 20 -13 24 -22 19 -42 -3 -14 -15 -35 -25 -45 -15
-16 -22 -17 -34 -7 -17 14 -36 7 -36 -12 0 -7 14 -21 30 -30 17 -10 30 -21 30
-25 1 -15 26 -39 48 -46 22 -7 24 -5 21 26 -1 21 10 58 31 103 18 39 34 76 36
83 1 7 9 23 17 36 9 13 17 31 19 42 2 10 10 27 18 37 8 10 15 21 15 25 1 14
39 107 52 127 17 25 17 71 -1 78 -7 3 -29 -4 -47 -15z m-73 -158 c-14 -22 -26
-45 -26 -53 0 -7 -6 -21 -14 -32 -7 -11 -14 -22 -14 -25 -2 -16 -15 -40 -22
-40 -13 0 -100 84 -100 97 0 11 29 28 43 24 4 -1 18 5 30 14 12 8 27 15 34 15
7 0 29 11 49 25 20 14 39 23 42 20 3 -2 -7 -23 -22 -45z"/>
<path d="M6307 6340 c-24 -19 -29 -53 -11 -82 9 -15 54 -9 54 7 0 8 4 15 8 15
15 0 58 -55 76 -97 18 -42 18 -42 -5 -70 -22 -26 -162 -144 -180 -151 -5 -2
-24 -19 -43 -38 -29 -29 -39 -33 -55 -25 -14 8 -22 7 -31 -4 -9 -11 -4 -21 29
-51 23 -20 41 -41 41 -48 0 -11 39 -40 46 -34 2 2 5 19 6 37 2 23 12 41 38 63
19 16 67 58 105 93 83 75 120 105 132 105 4 0 23 -22 41 -50 18 -27 37 -50 42
-50 5 0 16 -8 26 -17 9 -9 26 -19 38 -22 65 -13 100 3 56 25 -31 17 -110 96
-110 111 0 7 -4 13 -9 13 -5 0 -24 24 -42 52 -64 100 -148 197 -188 217 -39
20 -39 20 -64 1z"/>
<path d="M1528 6273 c-27 -32 -48 -63 -48 -70 0 -15 32 -17 46 -4 9 10 70 -35
130 -96 17 -18 36 -33 41 -33 12 0 48 -38 42 -44 -2 -2 -27 0 -54 5 -209 39
-318 31 -372 -28 -30 -32 -32 -88 -3 -96 26 -7 50 17 45 43 -2 11 1 20 6 20
12 0 85 -52 139 -97 20 -18 41 -33 46 -33 9 0 63 -44 102 -82 13 -14 22 -35
22 -55 0 -39 18 -53 36 -27 8 10 24 30 37 44 27 30 60 80 63 97 4 21 -26 23
-38 3 -23 -36 -58 -24 -152 53 -48 39 -99 79 -112 87 -13 8 -24 19 -24 23 0
12 135 0 160 -13 10 -6 23 -9 27 -9 4 1 15 0 23 -4 14 -5 114 -19 135 -18 158
3 240 46 288 150 25 53 31 77 29 125 -2 69 -15 89 -37 60 -9 -12 -14 -41 -13
-82 0 -53 -4 -69 -28 -104 -35 -49 -61 -68 -105 -72 -19 -2 -38 -5 -44 -7 -14
-5 -75 21 -75 32 0 5 -6 9 -12 9 -7 0 -33 20 -58 45 -25 24 -48 44 -53 45 -4
0 -32 25 -62 57 -47 48 -55 62 -55 95 0 53 -16 48 -72 -19z"/>
<path d="M1238 5892 c-8 -9 -31 -43 -51 -74 -21 -31 -43 -63 -50 -70 -31 -33
-67 -88 -73 -112 -3 -14 -10 -29 -15 -31 -4 -3 -6 -12 -3 -19 3 -8 1 -17 -5
-21 -30 -18 5 -75 46 -75 36 0 45 28 27 88 -11 38 -11 38 181 -86 131 -84 145
-98 145 -147 0 -52 22 -78 40 -46 6 12 8 21 5 21 -10 0 42 94 69 125 71 80
115 204 75 213 -11 2 -19 -10 -28 -37 -6 -23 -22 -52 -34 -65 -23 -26 -67 -82
-78 -98 -7 -11 -89 39 -89 54 0 9 30 59 41 68 15 12 40 73 37 92 -6 39 -23 28
-73 -47 -27 -41 -56 -75 -63 -75 -7 0 -35 16 -62 35 -27 19 -53 35 -57 35 -11
1 -63 48 -63 57 0 4 23 42 50 82 28 41 50 82 50 91 0 9 4 20 9 26 6 5 4 14 -4
21 -10 9 -16 8 -27 -5z"/>
<path d="M6571 5811 c-18 -25 -102 -91 -116 -91 -3 0 -27 -16 -53 -35 -44 -31
-51 -33 -68 -20 -42 31 -47 1 -9 -49 14 -18 25 -39 25 -48 0 -21 59 -63 72
-50 6 6 5 16 -3 29 -31 51 50 118 274 229 37 19 67 39 67 44 0 6 -19 11 -42
11 -24 -1 -62 2 -84 5 -38 5 -43 3 -63 -25z"/>
<path d="M6703 5719 c-18 -5 -33 -14 -33 -19 0 -6 0 -13 0 -17 -1 -5 16 -11
37 -16 48 -10 54 -10 78 -2 39 12 150 -113 170 -190 25 -96 25 -145 0 -159
-11 -6 -22 -14 -25 -17 -3 -3 -36 -23 -75 -43 -38 -20 -77 -41 -85 -46 -38
-22 -102 -50 -114 -50 -7 0 -25 9 -39 20 -58 46 -62 8 -11 -97 36 -72 66 -104
79 -83 3 5 2 18 -3 27 -19 41 2 71 72 104 34 15 75 36 91 45 17 9 37 21 45 25
8 5 28 16 43 25 l29 16 -7 -33 c-11 -51 -146 -266 -212 -339 -24 -26 -31 -70
-12 -70 6 0 23 9 38 19 15 11 58 32 96 47 39 15 78 34 88 42 9 8 17 12 17 9 0
-4 24 2 53 12 90 33 114 35 127 12 6 -12 17 -21 25 -21 19 0 20 46 1 82 -8 16
-18 48 -22 73 -8 59 -26 57 -52 -5 -15 -36 -29 -53 -49 -60 -15 -6 -35 -13
-43 -17 -8 -3 -19 -7 -25 -9 -5 -1 -29 -9 -52 -18 -49 -17 -53 -9 -22 39 10
17 26 46 35 65 9 19 22 42 29 50 8 8 19 35 25 60 13 54 15 60 24 82 7 16 4
108 -7 188 -8 62 -72 182 -116 218 -57 46 -143 68 -198 51z"/>
<path d="M6656 5602 c-3 -5 -15 -8 -28 -7 -42 3 -123 -70 -144 -130 -19 -56
-1 -130 36 -150 72 -39 127 -40 200 -4 71 35 113 89 112 144 -2 64 -27 107
-74 129 -45 20 -95 29 -102 18z m106 -59 c47 -45 34 -94 -42 -160 -34 -29
-100 -63 -124 -63 -6 0 -24 11 -40 23 -51 41 -41 101 31 168 66 63 131 75 175
32z"/>
<path d="M1076 5413 c-4 -5 -11 -8 -14 -9 -49 -6 -117 -76 -163 -168 -25 -49
-29 -70 -29 -135 0 -64 3 -81 19 -95 21 -19 70 -13 72 10 1 8 2 20 3 27 3 19
-14 37 -35 37 -14 0 -19 7 -19 29 0 40 8 43 55 21 22 -11 46 -19 53 -20 7 0
20 -4 30 -9 9 -6 49 -21 87 -35 88 -32 148 -72 142 -94 -2 -9 3 -30 11 -46
l15 -30 18 23 c11 13 19 32 19 43 0 11 13 60 30 108 29 89 30 101 9 177 -14
50 -83 129 -121 138 -15 4 -32 13 -39 21 -12 15 -129 20 -143 7z m102 -67 c17
-4 32 -12 32 -17 0 -6 4 -8 10 -4 14 9 120 -102 114 -119 -3 -8 -2 -22 4 -31
12 -23 -7 -105 -25 -105 -8 0 -38 11 -66 24 -42 20 -112 49 -112 47 0 0 -40
15 -90 33 -100 38 -111 53 -73 97 13 14 43 39 67 55 45 31 72 35 139 20z"/>
<path d="M800 4937 c0 -18 -7 -42 -15 -55 -12 -16 -13 -26 -5 -42 11 -20 30
-27 30 -11 0 18 31 20 77 6 27 -8 91 -26 143 -41 52 -15 99 -31 105 -36 5 -4
17 -8 27 -8 10 0 18 -4 18 -9 0 -6 11 -22 25 -37 21 -22 27 -25 40 -14 8 7 15
25 15 40 0 14 3 30 8 34 4 4 8 12 8 17 1 5 2 10 3 12 2 1 4 12 7 25 5 27 -10
28 -44 2 -17 -14 -29 -17 -36 -10 -5 5 -19 10 -31 10 -12 0 -26 5 -33 12 -7 7
-12 8 -12 4 0 -5 -6 -3 -14 3 -8 6 -18 11 -22 10 -15 -4 -84 13 -84 20 0 4 -8
7 -17 8 -50 4 -129 41 -148 69 -23 35 -45 31 -45 -9z"/>
<path d="M717 4773 c-23 -22 6 -68 33 -53 12 6 28 2 56 -17 21 -15 44 -32 49
-39 11 -13 116 -81 159 -104 32 -17 36 -34 9 -36 -10 -1 -38 -7 -63 -14 -25
-6 -63 -13 -85 -15 -22 -3 -55 -7 -74 -10 -27 -4 -40 0 -58 16 -30 29 -51 12
-52 -39 -1 -20 -4 -56 -7 -79 -8 -53 11 -58 41 -11 11 17 27 32 35 34 8 1 29
5 45 9 17 4 53 11 80 15 28 5 61 11 75 14 47 11 125 25 175 32 28 4 53 8 58
10 4 1 12 2 17 3 17 2 11 31 -7 37 -111 36 -215 97 -325 190 -60 50 -140 78
-161 57z"/>
<path d="M6793 4374 c-3 -8 0 -27 7 -42 17 -36 18 -111 3 -142 -7 -14 -13 -60
-13 -105 0 -81 0 -81 39 -119 36 -35 45 -39 106 -44 91 -7 125 11 170 92 18
34 36 80 40 104 8 48 48 100 83 107 16 3 33 -7 57 -32 40 -41 51 -71 39 -110
-4 -16 -6 -32 -5 -36 1 -5 -8 -22 -20 -38 -17 -24 -27 -30 -53 -27 -24 2 -31
-1 -31 -14 0 -10 5 -19 10 -19 6 -1 25 -14 43 -30 32 -29 51 -36 53 -21 1 4 3
22 5 41 2 19 12 46 21 60 9 14 22 53 28 86 10 52 9 66 -6 102 -10 22 -15 43
-13 46 10 9 -59 57 -84 59 -15 0 -34 2 -42 2 -51 5 -114 -75 -127 -160 -13
-91 -69 -144 -150 -144 -38 0 -50 5 -79 34 -28 28 -34 41 -34 77 0 53 32 121
65 139 40 21 37 37 -15 70 -27 17 -52 40 -55 50 -8 24 -34 34 -42 14z"/>
<path d="M1123 4349 c-9 -9 -5 -20 18 -48 23 -28 29 -45 29 -84 0 -56 -18 -95
-89 -192 -28 -38 -51 -73 -51 -78 0 -5 -7 -24 -16 -43 l-16 -34 -47 50 c-46
49 -48 50 -107 50 -83 0 -147 -40 -165 -102 -7 -24 -16 -47 -21 -52 -15 -18
-9 -162 9 -198 9 -18 22 -44 29 -58 16 -31 59 -44 79 -23 18 17 4 53 -20 53
-17 0 -20 16 -5 25 5 3 33 8 61 11 29 3 57 8 63 11 16 10 213 31 242 25 13 -2
33 -15 43 -28 10 -13 24 -24 30 -24 14 0 15 27 1 35 -5 3 -10 31 -10 61 0 31
-5 64 -10 75 -12 22 -40 26 -40 6 0 -22 -39 -57 -65 -57 -15 0 -26 7 -30 19
-6 21 37 134 61 162 8 8 14 19 14 24 0 4 15 28 33 54 54 76 72 121 71 181 -2
75 -7 99 -29 145 -21 42 -42 54 -62 34z m-228 -463 c24 -8 79 -82 70 -96 -3
-5 -1 -18 4 -29 13 -24 -7 -43 -52 -47 -18 -1 -63 -5 -100 -8 -38 -3 -73 -9
-78 -12 -18 -10 -36 15 -37 52 -4 98 98 172 193 140z"/>
<path d="M742 4302 c-59 -38 -75 -64 -73 -125 1 -66 36 -122 83 -133 18 -4 36
-9 41 -10 4 -1 8 -3 10 -4 1 -1 22 -4 47 -6 60 -4 145 22 183 56 29 26 32 34
32 87 0 46 -5 65 -23 88 -42 53 -79 68 -172 72 -78 2 -88 1 -128 -25z m236
-61 c72 -37 75 -89 6 -128 -31 -18 -55 -23 -117 -23 -81 0 -117 12 -150 48
-34 37 -7 97 53 120 44 17 160 8 208 -17z"/>
<path d="M6974 3854 c-163 -38 -225 -152 -147 -271 41 -64 129 -95 273 -96
102 -1 178 32 205 89 22 45 27 129 10 161 -48 92 -210 147 -341 117z m147 -78
c25 -4 70 -20 100 -34 51 -26 53 -29 55 -69 1 -30 -4 -49 -18 -65 -37 -43
-145 -54 -281 -28 -143 26 -186 137 -75 193 29 14 138 16 219 3z"/>
<path d="M875 3536 c-11 -7 -23 -14 -27 -15 -28 -5 -77 -47 -101 -85 -27 -43
-28 -51 -24 -133 4 -90 5 -97 25 -146 7 -16 12 -33 12 -38 0 -5 5 -9 12 -9 6
0 8 -3 5 -6 -9 -10 53 -85 64 -78 5 3 12 -1 15 -9 5 -14 15 -18 79 -35 28 -8
105 -7 135 2 14 4 36 9 50 12 14 2 42 23 64 45 33 35 37 45 32 72 -7 36 -20
47 -57 47 -33 0 -49 -18 -45 -52 4 -32 -24 -47 -100 -55 -146 -15 -263 101
-258 257 2 90 66 149 171 158 56 4 66 2 97 -21 59 -45 66 -56 64 -97 -1 -44
-12 -51 -108 -70 -30 -5 -64 -12 -75 -14 -83 -17 -96 -48 -30 -73 69 -25 74
-26 90 -9 9 9 25 16 35 16 10 0 21 4 24 9 6 10 77 30 121 35 17 2 30 5 30 6 0
1 15 3 34 4 23 2 42 -5 62 -21 41 -35 51 -21 27 35 -12 26 -23 69 -25 96 -4
58 -19 82 -39 65 -8 -6 -12 -21 -9 -33 3 -11 2 -25 -2 -31 -12 -15 -51 -35
-68 -35 -8 0 -16 6 -16 13 -1 14 -5 30 -8 37 -2 3 -4 13 -6 22 -8 40 -61 97
-115 122 -62 29 -106 33 -135 12z"/>
<path d="M6876 3433 c-51 -4 -63 -9 -89 -36 -71 -76 -87 -163 -47 -254 22 -50
34 -63 61 -63 29 0 28 27 -2 61 -24 27 -29 41 -29 85 0 45 5 59 31 89 18 20
44 42 59 50 97 50 277 -22 335 -136 31 -59 -8 -162 -71 -191 -34 -16 -31 -40
4 -35 54 7 80 28 106 87 25 56 36 147 19 164 -5 4 -8 11 -9 14 -5 45 -104 148
-150 156 -41 8 -162 13 -218 9z"/>
<path d="M6669 3070 c-1 -5 -2 -14 -3 -19 0 -5 -4 -13 -8 -17 -5 -4 -8 -16 -8
-26 0 -11 -6 -31 -14 -47 -22 -41 -6 -58 32 -36 28 17 32 17 78 1 27 -9 54
-18 59 -20 14 -4 84 -34 125 -54 19 -9 37 -16 40 -17 17 -1 90 -63 92 -79 5
-31 27 -30 39 1 6 15 22 50 35 77 13 27 21 53 18 57 -9 15 -25 10 -42 -11 -17
-20 -18 -20 -70 -2 -28 10 -55 22 -59 25 -3 4 -15 7 -25 7 -10 0 -26 4 -36 9
-39 22 -109 51 -120 51 -6 0 -15 6 -19 13 -4 6 -14 12 -20 13 -7 1 -19 2 -27
3 -12 1 -28 27 -31 51 -3 23 -34 40 -36 20z"/>
<path d="M6574 2833 c-10 -21 -17 -42 -16 -47 4 -12 -89 -196 -99 -196 -15 0
-80 -129 -77 -152 5 -37 35 -34 52 5 15 37 67 118 129 204 l38 52 32 -18 c47
-26 42 -52 -30 -160 -27 -40 -29 -59 -7 -68 15 -5 38 18 39 38 0 4 19 33 43
64 23 32 42 61 42 66 0 14 32 10 60 -6 14 -7 53 -28 88 -45 34 -18 62 -36 62
-41 0 -5 -20 -41 -45 -81 -25 -40 -45 -78 -45 -85 0 -7 -5 -13 -11 -13 -5 0
-7 -5 -4 -10 4 -6 2 -17 -4 -24 -8 -9 -7 -18 3 -31 12 -17 16 -17 30 -6 9 8
14 16 12 19 -10 9 88 166 119 192 8 7 15 21 15 31 0 10 5 21 10 24 6 4 8 10 5
15 -3 5 -1 11 5 15 19 12 11 84 -11 106 l-21 21 -21 -21 c-16 -15 -18 -24 -10
-32 6 -6 9 -18 6 -25 -6 -16 -33 -19 -33 -4 0 6 -6 10 -13 10 -7 0 -29 9 -50
20 -20 11 -43 20 -50 20 -7 0 -23 9 -35 20 -12 11 -26 20 -31 20 -5 0 -27 10
-48 22 -82 46 -84 48 -74 66 11 20 -5 63 -25 69 -6 2 -20 -13 -30 -34z"/>
<path d="M1477 2573 c-3 -2 10 -24 28 -48 18 -24 39 -61 45 -82 7 -21 23 -56
36 -79 13 -22 24 -47 24 -56 0 -8 -20 -29 -43 -46 -33 -23 -47 -28 -55 -20 -7
7 -12 18 -12 25 0 16 -42 84 -61 100 -9 8 -20 9 -29 3 -13 -8 -11 -16 10 -57
14 -26 34 -61 45 -76 l20 -29 -35 -30 c-19 -17 -54 -47 -77 -68 -38 -35 -42
-37 -55 -22 -15 19 -34 52 -57 97 -19 39 -54 73 -86 85 -42 16 -44 -14 -3 -53
42 -40 63 -72 78 -123 26 -87 113 -175 169 -171 33 3 59 50 41 73 -16 18 -34
18 -50 -1 -12 -15 -30 -12 -30 6 0 5 28 36 63 69 142 135 209 184 252 182 48
-2 51 12 10 50 -20 18 -60 75 -90 128 -29 52 -64 104 -77 116 -25 23 -53 36
-61 27z"/>
<path d="M6289 2320 c-19 -27 -37 -50 -41 -50 -13 0 -39 -59 -29 -64 11 -7 41
3 41 14 0 5 9 11 19 15 29 9 120 -43 269 -154 64 -48 71 -56 60 -71 -84 -116
-118 -175 -118 -206 0 -19 0 -37 -1 -41 -2 -21 22 -11 33 14 7 15 15 30 18 33
3 3 21 27 40 55 19 27 62 77 95 111 33 34 74 86 90 115 49 91 39 180 -21 176
-33 -3 -50 -39 -29 -61 22 -22 18 -47 -15 -85 l-30 -35 -26 25 c-14 13 -29 23
-32 21 -4 -2 -21 8 -39 22 -18 15 -35 26 -38 26 -4 0 -47 27 -96 61 -83 57
-89 64 -89 95 0 49 -21 43 -61 -16z"/>
<path d="M1769 2198 c-1 -7 -1 -16 0 -20 0 -4 -65 -73 -145 -153 -118 -116
-152 -145 -174 -145 -43 0 -44 -25 -2 -80 43 -57 77 -67 70 -21 -4 26 7 42 89
128 l94 98 34 -40 c19 -22 46 -51 60 -65 14 -14 25 -29 25 -32 0 -10 -180
-188 -189 -188 -4 0 -13 -11 -19 -25 -13 -29 -2 -40 31 -29 12 4 34 7 48 6 28
-2 30 -1 116 98 137 155 166 181 195 175 43 -10 36 14 -22 76 -41 44 -52 51
-60 39 -5 -8 -7 -24 -4 -35 6 -24 -33 -75 -58 -75 -9 0 -29 15 -44 34 -75 87
-76 90 -43 125 17 18 28 22 55 16 41 -7 45 9 12 52 -13 15 -28 37 -34 47 -13
24 -34 32 -35 14z"/>
<path d="M6046 2025 c-21 -25 -46 -47 -55 -50 -9 -3 -24 -17 -35 -31 -15 -22
-16 -28 -5 -35 9 -5 21 -1 34 11 12 11 24 20 28 20 9 0 46 -30 66 -54 9 -10
36 -39 60 -64 38 -40 81 -122 64 -122 -3 0 -1 -6 5 -13 9 -11 9 -38 -1 -102
-2 -11 -15 -43 -30 -72 -20 -38 -39 -59 -74 -80 -27 -15 -51 -28 -55 -28 -3 0
-10 -3 -14 -7 -4 -5 -20 -8 -36 -8 -30 0 -40 14 -42 56 -3 51 -54 59 -89 13
-26 -35 -16 -79 22 -102 42 -25 131 -22 189 5 68 32 159 144 179 219 12 46 5
167 -13 228 -6 22 -6 23 16 11 13 -7 40 -14 60 -15 49 -3 60 -11 60 -44 0 -15
9 -36 20 -46 23 -21 26 -15 33 55 6 61 13 86 37 133 15 28 18 43 10 51 -7 7
-22 -2 -52 -33 -57 -59 -77 -64 -151 -45 -80 21 -115 39 -154 81 -33 34 -41
57 -24 67 11 7 8 39 -5 43 -5 1 -27 -18 -48 -42z"/>
<path d="M2118 1834 c-3 -3 -1 -20 5 -39 9 -31 7 -37 -29 -81 -21 -26 -48 -57
-59 -69 -18 -19 -33 -37 -107 -128 l-23 -28 -40 29 c-23 16 -51 34 -63 41 -31
16 -118 30 -133 21 -15 -10 -3 -30 19 -30 27 -1 97 -36 123 -62 35 -36 120
-129 149 -163 42 -50 131 -109 183 -121 4 -1 8 -3 10 -4 1 -1 27 -4 57 -5 76
-4 138 26 163 78 17 37 17 39 -2 66 -14 20 -28 27 -48 26 -43 -2 -53 -12 -53
-55 0 -44 -23 -64 -72 -62 -42 1 -145 79 -205 156 l-23 28 33 45 c17 25 38 48
45 50 6 3 12 9 12 14 0 10 16 31 70 92 70 80 80 87 106 76 33 -12 34 -12 34
10 0 11 -9 21 -24 25 -13 3 -36 23 -52 43 -37 51 -59 64 -76 47z"/>
<path d="M4831 1293 c-19 -9 -61 -41 -93 -71 -80 -74 -120 -168 -122 -287 -3
-111 33 -172 122 -204 49 -18 114 -22 129 -8 3 4 15 7 25 7 10 0 18 4 18 8 0
5 12 15 26 22 87 47 64 224 -34 266 -48 20 -107 20 -157 -1 -22 -10 -42 -17
-45 -16 -8 2 -7 25 2 37 5 7 8 16 6 20 -4 14 37 96 68 136 16 21 49 48 72 61
67 36 51 64 -17 30z m35 -297 c13 -9 26 -29 30 -44 3 -15 8 -34 11 -42 4 -8 5
-19 3 -25 -1 -5 -4 -17 -4 -25 -7 -53 -61 -91 -114 -80 -60 14 -91 57 -97 135
-5 50 0 58 50 82 45 22 85 22 121 -1z"/>
<path d="M4488 1195 c-4 -4 -128 -14 -200 -16 -19 0 -60 -39 -64 -60 -13 -69
-25 -121 -38 -158 -9 -24 -14 -47 -11 -52 8 -12 37 1 53 23 30 41 110 63 157
43 75 -31 106 -167 57 -247 -36 -58 -137 -91 -177 -58 -8 7 -15 9 -15 6 0 -4
-20 5 -43 19 -49 28 -64 24 -41 -10 19 -29 104 -66 155 -67 44 0 138 41 170
76 54 56 79 172 50 229 -27 54 -89 105 -111 92 -5 -3 -11 -1 -15 4 -5 10 -92
6 -127 -5 -12 -3 -18 0 -18 10 0 28 24 96 35 97 5 1 26 3 45 4 19 2 37 4 40 6
10 4 26 7 58 8 31 1 72 30 72 51 0 10 -23 14 -32 5z"/>
<path d="M3599 1139 c-58 -71 -239 -249 -253 -249 -3 0 -36 -21 -72 -46 -36
-25 -71 -47 -77 -49 -39 -10 -57 -19 -57 -27 0 -16 58 -1 125 31 68 34 223
148 254 188 12 14 22 21 22 14 5 -53 -10 -179 -22 -187 -5 -3 -7 -10 -3 -16
11 -17 -29 -79 -56 -84 -45 -10 -52 -14 -47 -27 3 -11 29 -15 157 -20 56 -2
81 13 38 24 -20 4 -23 11 -21 50 1 24 4 62 7 84 3 22 7 50 9 62 2 13 6 26 10
29 4 4 7 17 7 29 0 13 9 58 20 101 35 139 21 170 -41 93z"/>
<path d="M3854 1155 c-66 -33 -124 -117 -119 -172 6 -60 52 -132 84 -133 8 0
29 -5 47 -12 24 -8 45 -9 78 -1 l46 10 0 -28 c0 -17 -10 -39 -27 -55 -38 -38
-139 -101 -173 -109 -34 -7 -57 -30 -40 -40 36 -22 209 72 274 149 56 68 75
99 91 152 12 39 11 51 -6 107 -10 35 -27 71 -36 80 -33 32 -66 57 -77 58 -60
5 -126 2 -142 -6z m141 -45 c30 -25 40 -64 35 -130 -5 -68 -26 -94 -80 -104
-14 -2 -29 -5 -35 -7 -5 -2 -26 3 -46 9 -45 16 -65 56 -61 126 4 78 54 126
128 123 22 -1 49 -9 59 -17z"/>
</g>
</svg>
